<svg width="36" height="30" viewBox="0 0 36 30" fill="none" xmlns="http://www.w3.org/2000/svg">
<path d="M36 3.5219C36 1.5768 34.4256 0 32.4835 0H3.51648C1.57438 0 0 1.5768 0 3.5219V26.4781C0 28.4232 1.57438 30 3.51648 30H32.4835C34.4256 30 36 28.4232 36 26.4781V3.5219ZM3.53532 2.8145H32.5111C32.8989 2.8145 33.2111 3.12426 33.2111 3.51271V3.54326L18.5198 18.2588C18.3406 18.4383 18.1322 18.4651 18.0234 18.4651C17.9146 18.4651 17.7054 18.4383 17.5262 18.2588L2.83146 3.54126V3.51271C2.83146 3.12426 3.14752 2.8145 3.53532 2.8145ZM32.5111 27.1855H3.53532C3.14752 27.1855 2.83146 26.8639 2.83146 26.4755V7.52582L15.5374 20.2511C16.2016 20.9163 17.0848 21.2826 18.024 21.2826C18.9634 21.2825 19.8449 20.9161 20.509 20.251L33.2111 7.5278V26.4755C33.2111 26.8639 32.8989 27.1855 32.5111 27.1855Z" fill="white"/>
</svg>
