<svg width="259" height="77" viewBox="0 0 259 77" version="1.1" xmlns="http://www.w3.org/2000/svg" xmlns:xlink="http://www.w3.org/1999/xlink">
<title>alas-en-libertad</title>
<desc>Created using Figma</desc>
<g id="Canvas" transform="translate(465 -1019)">
<g id="alas-en-libertad">
<g id="Group">
<g id="Group">
<g id="Group">
<g id="Vector">
<use xlink:href="#path0_fill" transform="translate(-376.111 1059.84)" fill="#F79435"/>
</g>
</g>
<g id="Group">
<g id="Vector">
<use xlink:href="#path1_fill" transform="translate(-375.491 1055.28)" fill="#F79435"/>
</g>
</g>
<g id="Group">
<g id="Vector">
<use xlink:href="#path2_fill" transform="translate(-423.177 1019)" fill="#F79435"/>
</g>
</g>
<g id="Group">
<g id="Vector">
<use xlink:href="#path3_fill" transform="translate(-387.723 1035.73)" fill="#F79435"/>
</g>
</g>
<g id="Group">
<g id="Vector">
<use xlink:href="#path4_fill" transform="translate(-409.593 1060.34)" fill="#F79435"/>
</g>
</g>
<g id="Group">
<g id="Vector">
<use xlink:href="#path5_fill" transform="translate(-444.032 1059.84)" fill="#F79435"/>
</g>
</g>
<g id="Group">
<g id="Vector">
<use xlink:href="#path6_fill" transform="translate(-449.429 1036.01)" fill="#F79435"/>
</g>
</g>
<g id="Group">
<g id="Vector">
<use xlink:href="#path7_fill" transform="translate(-413.087 1027.05)" fill="#F79435"/>
</g>
</g>
<g id="Group">
<g id="Vector">
<use xlink:href="#path8_fill" transform="translate(-463.823 1028.41)" fill="#F79435"/>
</g>
</g>
</g>
<g id="Group">
<g id="Group">
<g id="Vector">
<use xlink:href="#path9_fill" transform="translate(-425.77 1041.19)" fill="#FFFFFF"/>
</g>
</g>
<g id="Group">
<g id="Vector">
<use xlink:href="#path10_fill" transform="translate(-419.4 1019.84)" fill="#FFFFFF"/>
</g>
</g>
<g id="Group">
<g id="Vector">
<use xlink:href="#path11_fill" transform="translate(-465 1019.9)" fill="#FFFFFF"/>
</g>
</g>
<g id="Group">
<g id="Vector">
<use xlink:href="#path12_fill" transform="translate(-419.908 1042.49)" fill="#FFFFFF"/>
</g>
</g>
<g id="Group">
<g id="Vector">
<use xlink:href="#path13_fill" transform="translate(-461.393 1042.49)" fill="#FFFFFF"/>
</g>
</g>
</g>
</g>
<g id="Group">
<g id="Group">
<g id="Vector">
<use xlink:href="#path14_fill" transform="translate(-353.17 1019)" fill="#FFFFFF"/>
</g>
<g id="Vector">
<use xlink:href="#path15_fill" transform="translate(-327.693 1019)" fill="#FFFFFF"/>
</g>
<g id="Vector">
<use xlink:href="#path16_fill" transform="translate(-319.915 1026.6)" fill="#FFFFFF"/>
</g>
<g id="Vector">
<use xlink:href="#path17_fill" transform="translate(-300.525 1026.49)" fill="#FFFFFF"/>
</g>
<g id="Vector">
<use xlink:href="#path18_fill" transform="translate(-275.837 1026.49)" fill="#FFFFFF"/>
</g>
<g id="Vector">
<use xlink:href="#path19_fill" transform="translate(-253.967 1026.49)" fill="#FFFFFF"/>
</g>
</g>
<g id="Group">
<g id="Vector">
<use xlink:href="#path20_fill" transform="translate(-353.227 1055.39)" fill="#FFFFFF"/>
</g>
<g id="Vector">
<use xlink:href="#path21_fill" transform="translate(-342.968 1055.11)" fill="#FFFFFF"/>
</g>
<g id="Vector">
<use xlink:href="#path22_fill" transform="translate(-331.583 1055.39)" fill="#FFFFFF"/>
</g>
<g id="Vector">
<use xlink:href="#path23_fill" transform="translate(-307.12 1064.96)" fill="#FFFFFF"/>
</g>
<g id="Vector">
<use xlink:href="#path24_fill" transform="translate(-282.037 1064.91)" fill="#FFFFFF"/>
</g>
<g id="Vector">
<use xlink:href="#path25_fill" transform="translate(-267.213 1058.71)" fill="#FFFFFF"/>
</g>
<g id="Vector">
<use xlink:href="#path26_fill" transform="translate(-251.149 1064.96)" fill="#FFFFFF"/>
</g>
<g id="Vector">
<use xlink:href="#path27_fill" transform="translate(-227.588 1055.39)" fill="#FFFFFF"/>
</g>
</g>
</g>
</g>
</g>
<defs>
<path id="path0_fill" d="M 0.338195 3.21068C 0.225464 3.21068 0.11273 3.21068 -1.72014e-06 3.21068L -1.72014e-06 0.0563269C 0.281826 0.0563269 0.507294 -8.00465e-15 0.789122 -8.00465e-15L 1.29641 3.09802C 1.01458 3.15435 0.676389 3.21068 0.338195 3.21068Z"/>
<path id="path1_fill" d="M 0.450928 3.0417C 0.281832 2.92904 0.169099 2.87272 1.72014e-06 2.76006L 1.57824 8.59493e-07C 1.86007 0.168984 2.1419 0.337967 2.42372 0.563278L 0.450928 3.0417Z"/>
<path id="path2_fill" d="M 6.65114 13.237C 2.98738 13.237 -1.72014e-06 10.2516 -1.72014e-06 6.59034C -1.72014e-06 2.92904 2.98738 0 6.65114 0C 10.3149 0 13.3023 2.98537 13.3023 6.64667C 13.3023 10.308 10.3149 13.237 6.65114 13.237ZM 6.65114 3.15435C 4.73471 3.15435 3.21284 4.73153 3.21284 6.59034C 3.21284 8.44916 4.79108 10.0263 6.65114 10.0263C 8.56757 10.0263 10.0894 8.44916 10.0894 6.59034C 10.0894 4.73153 8.56757 3.15435 6.65114 3.15435Z"/>
<path id="path3_fill" d="M 3.49467 14.0256L 0.394561 13.4623C 1.18368 9.23774 1.01458 4.90051 3.44028e-06 0.788588L 3.04374 4.29746e-07C 4.22742 4.50622 4.34015 9.3504 3.49467 14.0256Z"/>
<path id="path4_fill" d="M 0.789117 15.3775L 1.72014e-06 12.3358C 7.0457 10.5896 13.4714 6.08339 17.6424 8.59493e-07L 20.2353 1.80249C 15.726 8.50548 8.62394 13.4623 0.789117 15.3775Z"/>
<path id="path5_fill" d="M 18.9388 15.6028C 11.2168 13.406 4.28379 8.3365 4.30036e-07 1.68983L 2.64918 0C 6.53841 6.02707 12.795 10.5896 19.7843 12.5611L 18.9388 15.6028Z"/>
<path id="path6_fill" d="M 0.606276 13.5187C -0.295574 9.01244 -0.182843 4.33723 0.888104 4.29746e-07L 3.98821 0.73226C 3.03 4.61887 2.97363 8.78712 3.76275 12.899L 0.606276 13.5187Z"/>
<path id="path7_fill" d="M 0.169098 64.2699L -8.60071e-07 61.1156C 15.2187 60.2707 29.3101 51.0892 36.0176 37.7396C 44.3597 20.109 40.8651 7.37893 37.9904 1.35187L 40.8651 1.07437e-07C 46.2198 11.2655 45.4871 25.1785 38.8923 39.1478C 31.6775 53.5113 16.4588 63.3687 0.169098 64.2699Z"/>
<path id="path8_fill" d="M 43.4078 62.8054C 36.4185 62.2421 30.4437 60.5523 25.1454 57.7359C 4.79739 46.921 -4.95386 22.0805 2.4864 4.29746e-07L 5.47378 1.0139C -1.45919 21.6298 7.67204 44.8369 26.6109 54.9759C 31.5711 57.6233 36.9822 59.1441 43.6333 59.7074L 43.4078 62.8054Z"/>
<path id="path9_fill" d="M 9.24396 54.8069C 8.06028 54.8069 6.8766 54.2436 6.14385 53.2297L 6.03112 53.117C 5.91839 52.8917 5.80566 52.6664 5.69293 52.4974L 5.52383 52.1595C 1.91643 45.1185 -8.60071e-07 37.1763 -8.60071e-07 29.1778C -8.60071e-07 19.5457 2.70555 10.1953 7.89118 2.08412L 9.24396 8.59493e-07L 10.5967 2.08412C 15.726 10.139 18.4879 19.5457 18.4879 29.1778C 18.4879 37.2889 16.5151 45.3438 12.795 52.4974C 12.6823 52.6664 12.5695 52.8917 12.4568 53.117L 12.3441 53.286C 11.6113 54.1873 10.4276 54.8069 9.24396 54.8069ZM 8.73667 51.4272C 8.96213 51.7088 9.46942 51.7088 9.69489 51.4272C 9.75125 51.2582 9.86398 51.1456 9.92035 50.9766C 13.4714 44.1609 15.2751 36.8383 15.2751 29.1214C 15.2751 20.9539 13.1896 13.0117 9.24396 5.97074C 5.29837 13.0117 3.21284 20.9539 3.21284 29.1214C 3.21284 36.7257 5.07291 44.2736 8.56757 50.9766L 8.73667 51.3146C 8.73667 51.3709 8.73667 51.3709 8.73667 51.4272Z"/>
<path id="path10_fill" d="M 2.87465 25.7981L 8.60071e-07 25.7981L 1.57824 23.376C 10.9349 8.7308 26.83 0 44.1906 0C 45.2616 0 46.2198 0.0563277 47.178 0.112655C 47.3471 0.112655 47.5726 0.112655 47.798 0.168983L 47.9108 0.168983C 49.9963 0.506949 51.4618 2.25311 51.4618 4.33723C 51.4618 5.46379 51.0672 6.47769 50.2781 7.26628L 49.8836 7.60424C 42.6688 14.1946 34.3267 19.0951 25.0263 22.1931C 17.8115 24.5589 10.3713 25.7981 2.87465 25.7981ZM 44.1343 3.15435C 28.9156 3.15435 14.8242 10.3643 5.86203 22.5874C 12.0059 22.3058 18.037 21.1792 23.899 19.2078C 32.8048 16.2224 40.8087 11.5472 47.6853 5.23848L 47.7417 5.18215L 47.9108 5.06949C 48.0799 4.90051 48.1926 4.61887 48.1926 4.33723C 48.1926 3.83028 47.798 3.37966 47.3471 3.26701C 47.2344 3.26701 47.0653 3.26701 46.9526 3.26701C 46.0507 3.21068 45.1489 3.15435 44.1343 3.15435Z"/>
<path id="path11_fill" d="M 51.3491 25.7418L 48.4744 25.7418C 31.1702 25.7418 14.5423 19.3204 1.69097 7.66057C 1.52187 7.54791 1.35277 7.37893 1.18368 7.20995L 0.958215 6.98464L 0.90185 6.92831C 0.338194 6.19605 0 5.23848 0 4.33723C 0 2.25311 1.57824 0.394294 3.66377 0.112655L 3.72013 0.112655C 3.94559 0.112655 4.05832 0.0563277 4.22742 0.0563277C 5.12927 2.51805e-08 6.08749 1.34296e-08 7.15843 1.34296e-08C 24.519 1.34296e-08 40.4141 8.7308 49.7708 23.376L 51.3491 25.7418ZM 3.49467 5.01317C 3.6074 5.12582 3.72013 5.18215 3.7765 5.29481C 15.3314 15.7154 29.9865 21.7988 45.3743 22.4748C 36.4686 10.308 22.3771 3.09802 7.15843 3.09802C 6.20022 3.09802 5.29837 3.09802 4.39652 3.15435C 4.28379 3.15435 4.17106 3.15435 4.05832 3.15435C 3.55103 3.26701 3.15647 3.71763 3.15647 4.28091C 3.15647 4.50622 3.21284 4.6752 3.32557 4.84418L 3.4383 4.90051L 3.49467 5.01317Z"/>
<path id="path12_fill" d="M 40.8651 20.6159C 25.8718 20.6159 11.7804 14.0256 2.1419 2.59107L 0 4.29746e-07L 3.38194 4.29746e-07C 18.6007 4.29746e-07 33.4248 4.44989 46.1634 12.899C 46.3325 13.0117 46.5016 13.1244 46.6707 13.237L 46.7835 13.3497C 47.6853 14.1383 48.1926 15.2648 48.1926 16.4477C 48.1926 18.3628 46.8962 19.9963 45.0361 20.447L 44.8107 20.5033C 44.5288 20.5033 44.1906 20.5596 43.9088 20.5596C 42.9506 20.6159 41.936 20.6159 40.8651 20.6159ZM 7.0457 3.21068C 15.9515 12.2794 28.0701 17.4616 40.9214 17.4616C 41.8797 17.4616 42.8942 17.4053 43.8524 17.3489L 43.9088 17.3489C 44.1343 17.3489 44.3034 17.3489 44.5288 17.2926C 44.9234 17.18 45.1489 16.7857 45.1489 16.3914C 45.1489 16.0534 44.9798 15.8281 44.867 15.7154C 44.7543 15.6591 44.6416 15.5464 44.5288 15.4901C 33.1993 8.11119 20.348 3.88661 7.0457 3.21068Z"/>
<path id="path13_fill" d="M 7.32753 20.6159C 6.25658 20.6159 5.18564 20.5596 4.17106 20.5033C 3.88923 20.5033 3.6074 20.447 3.32557 20.447L 3.21284 20.447C 1.35277 20.0527 5.37544e-08 18.3628 5.37544e-08 16.4477C 5.37544e-08 15.3775 0.450925 14.3072 1.18368 13.575L 1.24004 13.4623L 1.91643 13.0117C 1.9728 12.9554 2.08553 12.899 2.14189 12.8427C 7.72209 9.12509 13.8659 6.13972 20.348 3.99927C 28.2955 1.35187 36.5813 4.29746e-07 44.9234 4.29746e-07L 48.3053 4.29746e-07L 46.1071 2.59107C 36.4122 14.0819 22.3208 20.6159 7.32753 20.6159ZM 3.83286 17.3489C 4.00196 17.3489 4.17106 17.4053 4.34015 17.4053L 4.39652 17.4053C 5.35473 17.4616 6.31295 17.5179 7.32753 17.5179C 20.1225 17.5179 32.2975 12.3921 41.2033 3.26701C 34.4394 3.60497 27.7882 4.84418 21.3062 7.04097C 15.0496 9.12509 9.13123 11.9978 3.7765 15.6028L 3.4383 15.8281C 3.26921 15.9407 3.15647 16.1661 3.15647 16.4477C 3.15647 16.842 3.4383 17.2363 3.83286 17.3489Z"/>
<path id="path14_fill" d="M 17.2479 19.4331L 5.52383 19.4331L 2.08553 29.5721L -3.44028e-06 29.5721L 10.3713 0L 12.4568 0L 22.8844 29.6284L 20.6862 29.6284L 17.2479 19.4331ZM 16.6279 17.6869L 14.7114 12.1668C 13.5277 8.67447 12.4568 5.57644 11.4422 1.91514L 11.2731 1.91514C 10.2585 5.57644 9.1876 8.67447 8.00392 12.1668L 6.08749 17.6869L 16.6279 17.6869Z"/>
<path id="path15_fill" d="M 0.0563639 0L 2.02916 0L 2.02916 26.981C 2.02916 27.9386 2.42372 28.3892 2.98737 28.3892C 3.15647 28.3892 3.32557 28.3892 3.7765 28.2765L 4.11469 29.91C 3.72013 30.0227 3.32557 30.1353 2.64919 30.1353C 0.901852 30.1353 3.44028e-06 29.0651 3.44028e-06 26.6993L 3.44028e-06 0L 0.0563639 0Z"/>
<path id="path16_fill" d="M 14.035 8.50549C 14.1478 5.23848 13.1895 1.68983 8.96213 1.68983C 6.03111 1.68983 3.49467 3.15435 2.08553 4.22458L 1.18368 2.76006C 2.70555 1.68983 5.69293 1.00058e-15 9.1876 1.00058e-15C 14.3169 1.00058e-15 16.0078 3.6613 16.0078 8.3365L 16.0078 22.1368L 14.3169 22.1368L 14.0914 19.3767L 13.9787 19.3767C 11.7804 21.1229 9.1876 22.7001 6.31295 22.7001C 2.87465 22.7001 -3.44028e-06 20.8413 -3.44028e-06 16.7857C 0.0563622 11.8288 4.45288 9.57571 14.035 8.50549ZM 6.7075 20.8413C 9.18759 20.8413 11.3858 19.602 14.035 17.3489L 14.035 10.0263C 5.18563 11.0402 2.1419 13.1244 2.1419 16.5604C 2.1419 19.602 4.22741 20.8413 6.7075 20.8413Z"/>
<path id="path17_fill" d="M 1.12731 18.1939C 2.98737 19.7147 4.90381 20.9539 8.00392 20.9539C 11.3859 20.9539 13.1332 18.9824 13.1332 16.673C 13.1332 13.9693 10.3713 12.7864 7.89118 11.8852C 4.62197 10.7023 1.01458 9.40673 1.01458 5.74543C 1.01458 2.59108 3.49467 1.07437e-07 8.00392 1.07437e-07C 10.3149 1.07437e-07 12.5695 0.957571 14.1478 2.25311L 13.0768 3.6613C 11.6113 2.59107 10.0894 1.74616 7.89118 1.74616C 4.56561 1.74616 3.04375 3.6613 3.04375 5.63277C 3.04375 7.99854 5.5802 9.06876 8.11666 9.97001C 11.4986 11.2092 15.1624 12.3358 15.1624 16.5604C 15.1624 19.771 12.5695 22.6437 7.89118 22.6437C 4.67834 22.6437 1.91642 21.2919 -6.88057e-06 19.6584L 1.12731 18.1939Z"/>
<path id="path18_fill" d="M 9.41305 1.07437e-07C 14.5423 1.07437e-07 17.6988 3.6613 17.6988 9.97001C 17.6988 10.5333 17.6988 11.0402 17.5861 11.6035L 2.02917 11.6035C 2.1419 17.0673 5.29837 20.9539 10.1458 20.9539C 12.4568 20.9539 14.3169 20.1653 15.9515 19.0388L 16.7406 20.5596C 15.0496 21.5735 13.0768 22.6437 9.97671 22.6437C 4.45288 22.6437 3.44028e-06 18.4192 3.44028e-06 11.3782C 3.44028e-06 4.33723 4.62197 1.07437e-07 9.41305 1.07437e-07ZM 15.7824 10.0827C 15.7824 4.56255 13.3023 1.74616 9.46942 1.74616C 5.80565 1.74616 2.48009 4.95684 2.02917 10.0827L 15.7824 10.0827Z"/>
<path id="path19_fill" d="M -3.44028e-06 0.563277L 1.69096 0.563277L 1.86007 3.88661L 1.97279 3.88661C 4.17105 1.68983 6.42568 1.07437e-07 9.41306 1.07437e-07C 13.8659 1.07437e-07 15.9515 2.70373 15.9515 8.28017L 15.9515 22.1368L 13.9787 22.1368L 13.9787 8.56181C 13.9787 3.99927 12.5132 1.80249 9.0185 1.80249C 6.48204 1.80249 4.62198 3.15435 1.97279 5.85808L 1.97279 22.1368L -3.44028e-06 22.1368L -3.44028e-06 0.563277Z"/>
<path id="path20_fill" d="M 1.72014e-06 -8.59493e-07L 4.17105 -8.59493e-07L 4.17105 30.1353C 4.17105 31.4309 4.73471 31.9378 5.35473 31.9378C 5.63656 31.9378 5.80565 31.9378 6.25658 31.8252L 6.82024 34.9795C 6.25658 35.2612 5.58019 35.3738 4.45288 35.3738C 1.29641 35.3738 0.0563622 33.4023 0.0563622 29.7974L 0.0563622 -8.59493e-07L 1.72014e-06 -8.59493e-07Z"/>
<path id="path21_fill" d="M 0 2.70373C 0 1.07023 1.24005 -8.59493e-07 2.87465 -8.59493e-07C 4.50925 -8.59493e-07 5.74929 1.07023 5.74929 2.70373C 5.74929 4.28091 4.50925 5.40746 2.87465 5.40746C 1.24005 5.40746 0 4.28091 0 2.70373ZM 0.789115 10.4206L 4.96018 10.4206L 4.96018 35.0358L 0.789115 35.0358L 0.789115 10.4206Z"/>
<path id="path22_fill" d="M -1.72014e-06 -8.59493e-07L 4.17106 -8.59493e-07L 4.17106 8.56182L 4.05832 13.0117C 6.31295 11.0402 9.0185 9.57571 11.7804 9.57571C 18.1497 9.57571 21.588 14.4762 21.588 22.0805C 21.588 30.4733 16.5715 35.4301 10.9349 35.4301C 8.68031 35.4301 6.08749 34.3036 3.88923 32.3884L 3.72013 32.3884L 3.38194 34.8105L 0.0563673 34.8105L 0.0563673 -8.59493e-07L -1.72014e-06 -8.59493e-07ZM 10.2022 31.8815C 14.2605 31.8815 17.2479 28.1639 17.2479 22.0805C 17.2479 16.673 15.4442 13.0117 10.7658 13.0117C 9.69489 13.0117 8.56757 13.3497 7.44026 13.9693C 5.4111 15.0395 4.17106 17.18 4.17106 19.4331L 4.17106 25.6854C 4.17106 28.8961 6.65114 31.7125 9.86398 31.8815C 9.97671 31.8815 10.0894 31.8815 10.2022 31.8815Z"/>
<path id="path23_fill" d="M 11.0477 -8.59493e-07C 17.3606 -8.59493e-07 20.9117 4.50622 20.9117 11.5472C 20.9117 12.3921 20.8553 13.237 20.7425 13.8003L 4.11469 13.8003C 4.39651 19.0951 7.60936 22.4748 12.3441 22.4748C 14.6551 22.4748 16.6279 21.6862 18.4879 20.5596L 19.9534 23.3197C 17.8115 24.6715 15.1624 25.8544 11.8368 25.8544C 5.24201 25.8544 3.44028e-06 21.0666 3.44028e-06 12.9554C 3.44028e-06 4.90051 5.41111 -8.59493e-07 11.0477 -8.59493e-07ZM 17.2479 11.0966C 17.2479 6.0834 14.9932 3.26701 11.1604 3.26701C 7.72209 3.26701 4.56561 6.0834 4.05832 11.0966L 17.2479 11.0966Z"/>
<path id="path24_fill" d="M 3.44028e-06 0.619604L 3.43831 0.619604L 3.77649 5.06949L 3.9456 5.06949C 5.63656 1.97147 8.17301 0 10.9349 0C 12.0059 0 12.7386 0.168984 13.5841 0.50695L 12.795 4.16825C 12.0059 3.88661 11.4422 3.77396 10.4276 3.77396C 8.34211 3.77396 5.86202 5.29481 4.17106 9.46306L 4.17106 25.2911L 3.44028e-06 25.2911L 3.44028e-06 0.619604L 3.44028e-06 0.619604Z"/>
<path id="path25_fill" d="M 3.66376 10.2516L -3.44028e-06 10.2516L -3.44028e-06 6.75933L 3.83287 6.87198L 3.83287 0L 7.83481 0L 7.83481 6.87198L 14.486 6.87198L 14.486 10.2516L 7.83481 10.2516L 7.83481 23.9393C 7.83481 26.981 8.79304 28.7271 11.6113 28.7271C 12.4568 28.7271 13.5841 28.3892 14.4296 28.0512L 15.2187 31.2056C 13.8659 31.6562 12.175 32.1068 10.6531 32.1068C 5.35473 32.1068 3.60739 28.7835 3.60739 23.883L 3.60739 10.2516L 3.66376 10.2516Z"/>
<path id="path26_fill" d="M 15.1623 9.63204C 15.1623 6.47769 14.0914 3.43599 10.0894 3.43599C 7.21479 3.43599 4.67834 4.73153 2.76191 6.08339L 1.07094 3.21068C 3.32556 1.74616 6.82024 -8.59493e-07 10.7658 -8.59493e-07C 16.797 -8.59493e-07 19.3334 3.99927 19.3334 10.139L 19.3334 25.2348L 15.8951 25.2348L 15.5569 22.3058L 15.4442 22.3058C 13.0768 24.2209 10.3149 25.8544 7.27116 25.8544C 3.1001 25.8544 -3.44028e-06 23.2633 -3.44028e-06 18.8698C -3.44028e-06 13.4623 4.67834 10.7586 15.1623 9.63204ZM 8.45484 22.4748C 8.96213 22.4748 9.46942 22.4184 9.92035 22.3058C 13.0205 21.6298 15.1623 18.7008 15.1623 15.5464L 15.1623 12.3358C 6.8766 13.3497 4.1147 15.3775 4.1147 18.5318C 4.1147 21.2919 5.97475 22.4748 8.45484 22.4748Z"/>
<path id="path27_fill" d="M 10.7095 9.57571C 13.5278 9.57571 15.4442 10.6459 17.5861 12.3921L 17.3606 8.16752L 17.3606 -8.59493e-07L 21.588 -8.59493e-07L 21.588 34.8105L 18.1497 34.8105L 17.8115 31.9378L 17.6424 31.9378C 15.726 33.7966 13.0768 35.4301 10.2022 35.4301C 4.00195 35.4301 6.88057e-06 30.7549 6.88057e-06 22.5311C 6.88057e-06 14.5326 5.07291 9.57571 10.7095 9.57571ZM 11.104 31.8815C 12.2313 31.8815 13.3587 31.5999 14.3732 31.0366C 16.2897 29.9663 17.3606 27.9386 17.3606 25.7981L 17.3606 19.1514C 17.3606 15.8281 14.7114 13.068 11.4422 13.068L 11.3859 13.068C 7.44026 13.068 4.28378 16.842 4.28378 22.4748C 4.28378 28.3328 6.76387 31.8815 11.104 31.8815Z"/>
</defs>
</svg>
