<svg width="233" height="69" viewBox="0 0 233 69" fill="none" xmlns="http://www.w3.org/2000/svg">
<path d="M0.304245 2.8771C0.202831 2.8771 0.101413 2.8771 -1.54746e-06 2.8771V0.0504747C0.253535 0.0504747 0.456369 0 0.709905 0L1.16627 2.77615C0.912731 2.82663 0.608489 2.8771 0.304245 2.8771Z" transform="translate(79.9655 36.5948)" fill="#F79435"/>
<path d="M0.405661 2.72568C0.25354 2.62473 0.152123 2.57425 1.54746e-06 2.4733L1.41981 7.70195e-07C1.67334 0.151427 1.92688 0.302854 2.18042 0.504756L0.405661 2.72568Z" transform="translate(80.5232 32.5063)" fill="#F79435"/>
<path d="M5.98346 11.8617C2.68749 11.8617 -1.54746e-06 9.18654 -1.54746e-06 5.90563C-1.54746e-06 2.62473 2.68749 0 5.98346 0C9.27943 0 11.9669 2.6752 11.9669 5.95611C11.9669 9.23701 9.27943 11.8617 5.98346 11.8617ZM5.98346 2.82663C4.25941 2.82663 2.89032 4.23994 2.89032 5.90563C2.89032 7.57132 4.31012 8.98464 5.98346 8.98464C7.70751 8.98464 9.0766 7.57132 9.0766 5.90563C9.0766 4.23994 7.70751 2.82663 5.98346 2.82663Z" transform="translate(37.6248)" fill="#F79435"/>
<path d="M3.14385 12.5684L0.354953 12.0636C1.06485 8.27798 0.912734 4.39137 3.09493e-06 0.706657L2.73819 3.85097e-07C3.80305 4.03804 3.90446 8.37893 3.14385 12.5684Z" transform="translate(69.5197 14.9913)" fill="#F79435"/>
<path d="M0.7099 13.7798L1.54746e-06 11.0541C6.33841 9.48939 12.119 5.45135 15.8714 7.70195e-07L18.2039 1.61521C14.1473 7.6218 7.75821 12.0636 0.7099 13.7798Z" transform="translate(49.8453 37.0489)" fill="#F79435"/>
<path d="M17.0376 13.9817C10.0908 12.0132 3.85375 7.47037 3.86866e-07 1.51426L2.38324 0C5.88205 5.40088 11.5106 9.48939 17.7983 11.256L17.0376 13.9817Z" transform="translate(18.8631 36.5948)" fill="#F79435"/>
<path d="M0.545414 12.1141C-0.265902 8.07608 -0.164488 3.88661 0.798951 3.85097e-07L3.58785 0.656181C2.72583 4.13899 2.67512 7.87418 3.38502 11.5589L0.545414 12.1141Z" transform="translate(14.0076 15.2436)" fill="#F79435"/>
<path d="M0.152123 57.5925L-7.73732e-07 54.7659C13.691 54.0088 26.3678 45.7813 32.402 33.8186C39.9066 18.0198 36.7628 6.61229 34.1767 1.21141L36.7628 9.62744e-08C41.58 10.0951 40.9208 22.5625 34.988 35.0805C28.4975 47.9517 14.8065 56.7849 0.152123 57.5925Z" transform="translate(46.7014 7.21805)" fill="#F79435"/>
<path d="M39.0503 56.2802C32.7626 55.7754 27.3876 54.2612 22.6211 51.7374C4.3158 42.0461 -4.45656 19.7864 2.2368 3.85097e-07L4.92429 0.908559C-1.31271 19.3826 6.90187 40.1785 23.9395 49.2641C28.4018 51.6364 33.2697 52.9993 39.2531 53.504L39.0503 56.2802Z" transform="translate(1.0592 8.42947)" fill="#F79435"/>
<path d="M8.316 49.1126C7.25114 49.1126 6.18629 48.6079 5.52709 47.6993L5.42568 47.5984C5.32427 47.3965 5.22285 47.1946 5.12143 47.0432L4.96931 46.7403C1.72405 40.4309 -7.73732e-07 33.3138 -7.73732e-07 26.1463C-7.73732e-07 17.515 2.43395 9.13606 7.09902 1.86759L8.316 7.70195e-07L9.53297 1.86759C14.1473 9.08559 16.632 17.515 16.632 26.1463C16.632 33.4148 14.8572 40.6328 11.5106 47.0432C11.4091 47.1946 11.3077 47.3965 11.2063 47.5984L11.1049 47.7498C10.4457 48.5574 9.38085 49.1126 8.316 49.1126ZM7.85963 46.0841C8.06246 46.3365 8.51883 46.3365 8.72166 46.0841C8.77236 45.9327 8.87377 45.8317 8.92448 45.6803C12.119 39.5728 13.7417 33.011 13.7417 26.0958C13.7417 18.7769 11.8655 11.6598 8.316 5.3504C4.76648 11.6598 2.89032 18.7769 2.89032 26.0958C2.89032 32.91 4.56366 39.6737 7.70751 45.6803L7.85963 45.9832C7.85963 46.0336 7.85963 46.0336 7.85963 46.0841Z" transform="translate(35.2922 19.8874)" fill="#1D1F38"/>
<path d="M2.58607 23.1178H7.73732e-07L1.4198 20.9473C9.83721 7.8237 24.1367 0 39.7545 0C40.718 0 41.58 0.0504755 42.442 0.100951C42.5941 0.100951 42.797 0.100951 42.9998 0.151426H43.1012C44.9774 0.454279 46.2958 2.01902 46.2958 3.88661C46.2958 4.89612 45.9408 5.80468 45.2309 6.51134L44.876 6.81419C38.3854 12.7198 30.8807 17.1112 22.514 19.8873C16.0235 22.0073 9.33014 23.1178 2.58607 23.1178ZM39.7038 2.82663C26.0128 2.82663 13.336 9.28749 5.27356 20.2407C10.8007 19.9883 16.2263 18.9788 21.4999 17.2121C29.5116 14.5369 36.7121 10.3475 42.8984 4.69422L42.9491 4.64374L43.1012 4.54279C43.2533 4.39137 43.3547 4.13899 43.3547 3.88661C43.3547 3.43233 42.9998 3.02853 42.5941 2.92758C42.4927 2.92758 42.3406 2.92758 42.2392 2.92758C41.4279 2.8771 40.6165 2.82663 39.7038 2.82663Z" transform="translate(41.0222 0.756989)" fill="#1D1F38"/>
<path d="M46.1943 23.0673H43.6083C28.0411 23.0673 13.0825 17.3131 1.52122 6.86467C1.3691 6.76371 1.21697 6.61229 1.06485 6.46086L0.862024 6.25896L0.811317 6.20848C0.304244 5.5523 0 4.69422 0 3.88661C0 2.01902 1.4198 0.353328 3.29597 0.100951H3.34668C3.54951 0.100951 3.65092 0.0504755 3.80305 0.0504755C4.61436 2.25643e-08 5.47639 1.20343e-08 6.43983 1.20343e-08C22.0577 1.20343e-08 36.3571 7.8237 44.7745 20.9473L46.1943 23.0673ZM3.14385 4.49232C3.24527 4.59327 3.34668 4.64374 3.39739 4.7447C13.7924 14.0827 26.9763 19.534 40.8194 20.1397C32.8076 9.23701 20.1308 2.77615 6.43983 2.77615C5.5778 2.77615 4.76649 2.77615 3.95517 2.82663C3.85375 2.82663 3.75234 2.82663 3.65092 2.82663C3.19456 2.92758 2.83961 3.33138 2.83961 3.83614C2.83961 4.03804 2.89032 4.18946 2.99173 4.34089L3.09314 4.39137L3.14385 4.49232Z" transform="translate(0 0.808594)" fill="#1D1F38"/>
<path d="M36.7628 18.474C23.2746 18.474 10.5978 12.5684 1.92688 2.32187L0 3.85097e-07H3.04244C16.7334 3.85097e-07 30.0694 3.98756 41.5293 11.5589C41.6814 11.6598 41.8335 11.7608 41.9856 11.8617L42.0871 11.9627C42.8984 12.6693 43.3547 13.6789 43.3547 14.7388C43.3547 16.455 42.1885 17.9188 40.5151 18.3226L40.3123 18.3731C40.0588 18.3731 39.7545 18.4236 39.501 18.4236C38.639 18.474 37.7262 18.474 36.7628 18.474ZM6.33841 2.8771C14.3502 11.0037 25.2522 15.6474 36.8135 15.6474C37.6755 15.6474 38.5882 15.5969 39.4503 15.5464H39.501C39.7038 15.5464 39.8559 15.5465 40.0588 15.496C40.4137 15.395 40.6165 15.0417 40.6165 14.6884C40.6165 14.3855 40.4644 14.1836 40.363 14.0827C40.2616 14.0322 40.1602 13.9312 40.0588 13.8808C29.8666 7.26847 18.3053 3.48281 6.33841 2.8771Z" transform="translate(40.5659 21.0482)" fill="#1D1F38"/>
<path d="M6.59195 18.474C5.62851 18.474 4.66507 18.4236 3.75234 18.3731C3.4988 18.3731 3.24527 18.3226 2.99173 18.3226H2.89032C1.21698 17.9693 4.83582e-08 16.455 4.83582e-08 14.7388C4.83582e-08 13.7798 0.405658 12.8208 1.06485 12.1646L1.11556 12.0636L1.72405 11.6598C1.77476 11.6094 1.87617 11.5589 1.92688 11.5084C6.9469 8.17703 12.474 5.50183 18.3053 3.58376C25.4551 1.21141 32.909 3.85097e-07 40.4137 3.85097e-07H43.4561L41.4786 2.32187C32.7569 12.6189 20.0801 18.474 6.59195 18.474ZM3.4481 15.5464C3.60022 15.5464 3.75234 15.5969 3.90446 15.5969H3.95517C4.81719 15.6474 5.67922 15.6979 6.59195 15.6979C18.1025 15.6979 29.0553 11.1046 37.067 2.92758C30.9822 3.23043 24.9987 4.34089 19.1674 6.30944C13.5388 8.17703 8.21458 10.7513 3.39739 13.9817L3.09314 14.1836C2.94102 14.2846 2.83961 14.4865 2.83961 14.7388C2.83961 15.0922 3.09314 15.4455 3.4481 15.5464Z" transform="translate(3.24527 21.0482)" fill="#1D1F38"/>
<path d="M15.5164 17.414H4.96931L1.87617 26.4996H-3.09493e-06L9.33014 0H11.2063L20.5872 26.5501H18.6096L15.5164 17.414ZM14.9586 15.8493L13.2346 10.9027C12.1697 7.77322 11.2063 4.99707 10.2936 1.71617H10.1415C9.22872 4.99707 8.26529 7.77322 7.20044 10.9027L5.47639 15.8493H14.9586Z" transform="translate(100.605)" fill="black"/>
<path d="M0.0507057 0H1.82546V24.1778C1.82546 25.0358 2.18041 25.4396 2.68748 25.4396C2.8396 25.4396 2.99173 25.4396 3.39739 25.3387L3.70163 26.8025C3.34668 26.9034 2.99173 27.0044 2.38324 27.0044C0.811318 27.0044 3.09493e-06 26.0454 3.09493e-06 23.9254V0H0.0507057Z" transform="translate(123.523)" fill="black"/>
<path d="M12.6261 7.6218C12.7275 4.69422 11.8655 1.51426 8.06245 1.51426C5.42567 1.51426 3.14386 2.82663 1.87617 3.78566L1.06485 2.4733C2.43395 1.51426 5.12144 0 8.2653 0C12.8797 0 14.4009 3.28091 14.4009 7.47037V19.8369H12.8796L12.6768 17.3636H12.5754C10.5978 18.9283 8.26529 20.3416 5.67922 20.3416C2.58608 20.3416 -3.09493e-06 18.6759 -3.09493e-06 15.0417C0.0507042 10.5999 4.00587 8.58083 12.6261 7.6218ZM6.03416 18.6759C8.26528 18.6759 10.2429 17.5655 12.6261 15.5465V8.98464C4.66507 9.8932 1.92688 11.7608 1.92688 14.8398C1.92688 17.5655 3.80304 18.6759 6.03416 18.6759Z" transform="translate(130.521 6.81427)" fill="black"/>
<path d="M1.01414 16.3036C2.68748 17.6664 4.41153 18.7769 7.20044 18.7769C10.2429 18.7769 11.8148 17.0102 11.8148 14.9407C11.8148 12.5179 9.33014 11.4579 7.09901 10.6503C4.15799 9.59035 0.912734 8.42941 0.912734 5.1485C0.912734 2.32187 3.14385 9.62744e-08 7.20044 9.62744e-08C9.27943 9.62744e-08 11.3077 0.858083 12.7275 2.01902L11.7641 3.28091C10.4457 2.32187 9.0766 1.56474 7.09901 1.56474C4.10728 1.56474 2.7382 3.28091 2.7382 5.04755C2.7382 7.16752 5.02003 8.12655 7.30186 8.93416C10.3443 10.0446 13.6403 11.0541 13.6403 14.8398C13.6403 17.7169 11.3077 20.2911 7.09901 20.2911C4.2087 20.2911 1.72404 19.0797 -6.18986e-06 17.6159L1.01414 16.3036Z" transform="translate(147.964 6.71335)" fill="black"/>
<path d="M8.46811 9.62744e-08C13.0825 9.62744e-08 15.9221 3.28091 15.9221 8.93416C15.9221 9.43892 15.9221 9.8932 15.8207 10.398H1.82547C1.92688 15.2941 4.76649 18.7769 9.12732 18.7769C11.2063 18.7769 12.8796 18.0702 14.3502 17.0607L15.0601 18.4236C13.5388 19.3321 11.7641 20.2911 8.97518 20.2911C4.00587 20.2911 3.09493e-06 16.5055 3.09493e-06 10.1961C3.09493e-06 3.88661 4.15799 9.62744e-08 8.46811 9.62744e-08ZM14.198 9.03511C14.198 4.08852 11.9669 1.56474 8.51882 1.56474C5.22285 1.56474 2.23113 4.44184 1.82547 9.03511H14.198Z" transform="translate(170.174 6.71335)" fill="black"/>
<path d="M-3.09493e-06 0.504755H1.52122L1.67335 3.48281H1.77475C3.75234 1.51426 5.78063 9.62744e-08 8.46812 9.62744e-08C12.474 9.62744e-08 14.3502 2.42282 14.3502 7.4199V19.8369H12.5754V7.67227C12.5754 3.58376 11.257 1.61522 8.11316 1.61522C5.83133 1.61522 4.15799 2.82663 1.77475 5.24945V19.8369H-3.09493e-06V0.504755Z" transform="translate(189.848 6.71335)" fill="black"/>
<path d="M1.54746e-06 -7.70195e-07H3.75234V27.0044C3.75234 28.1653 4.25941 28.6196 4.81719 28.6196C5.07073 28.6196 5.22285 28.6196 5.62851 28.5187L6.13558 31.3453C5.62851 31.5977 5.02002 31.6986 4.00587 31.6986C1.16627 31.6986 0.0507042 29.932 0.0507042 26.7015V-7.70195e-07H1.54746e-06Z" transform="translate(100.553 32.6072)" fill="black"/>
<path d="M0 2.42282C0 0.959035 1.11556 -7.70195e-07 2.58608 -7.70195e-07C4.05659 -7.70195e-07 5.17214 0.959035 5.17214 2.42282C5.17214 3.83614 4.05659 4.84565 2.58608 4.84565C1.11556 4.84565 0 3.83614 0 2.42282ZM0.709899 9.33797H4.46224V31.3958H0.709899V9.33797Z" transform="translate(109.781 32.3549)" fill="black"/>
<path d="M-1.54746e-06 -7.70195e-07H3.75234V7.67228L3.65092 11.6598C5.67921 9.8932 8.11317 8.58083 10.5978 8.58083C16.3277 8.58083 19.4209 12.9722 19.4209 19.7864C19.4209 27.3072 14.9079 31.7491 9.83722 31.7491C7.80893 31.7491 5.47639 30.7396 3.49881 29.0234H3.34668L3.04244 31.1939H0.0507088V-7.70195e-07H-1.54746e-06ZM9.17802 28.5691C12.8289 28.5691 15.5164 25.2377 15.5164 19.7864C15.5164 14.9407 13.8938 11.6598 9.68509 11.6598C8.72165 11.6598 7.7075 11.9627 6.69336 12.5179C4.8679 13.477 3.75234 15.395 3.75234 17.414V23.0168C3.75234 25.8939 5.98346 28.4177 8.87377 28.5691C8.97519 28.5691 9.07661 28.5691 9.17802 28.5691Z" transform="translate(120.024 32.6072)" fill="black"/>
<path d="M9.93864 -7.70195e-07C15.6179 -7.70195e-07 18.8124 4.03804 18.8124 10.3475C18.8124 11.1046 18.7617 11.8617 18.6603 12.3665H3.70163C3.95517 17.1112 6.84548 20.1397 11.1049 20.1397C13.1839 20.1397 14.9586 19.4331 16.632 18.4236L17.9504 20.8969C16.0235 22.1083 13.6403 23.1682 10.6485 23.1682C4.71578 23.1682 3.09493e-06 18.8778 3.09493e-06 11.6094C3.09493e-06 4.39137 4.86791 -7.70195e-07 9.93864 -7.70195e-07ZM15.5164 9.94367C15.5164 5.45135 13.4881 2.92758 10.04 2.92758C6.9469 2.92758 4.10728 5.45135 3.65092 9.94367H15.5164Z" transform="translate(142.031 41.1879)" fill="black"/>
<path d="M3.09493e-06 0.55523H3.09315L3.39738 4.54279H3.54951C5.07073 1.76664 7.35256 0 9.83721 0C10.8007 0 11.4599 0.151427 12.2205 0.45428L11.5105 3.73519C10.8006 3.48281 10.2936 3.38186 9.38085 3.38186C7.50468 3.38186 5.27356 4.7447 3.75234 8.47988V22.6635H3.09493e-06V0.55523V0.55523Z" transform="translate(164.596 41.1375)" fill="black"/>
<path d="M3.29597 9.18654H-3.09493e-06V6.05706L3.4481 6.15801V0H7.04831V6.15801H13.0318V9.18654H7.04831V21.4521C7.04831 24.1778 7.91034 25.7425 10.4457 25.7425C11.2063 25.7425 12.2205 25.4396 12.9811 25.1368L13.691 27.9634C12.474 28.3672 10.9528 28.771 9.58367 28.771C4.81719 28.771 3.24526 25.793 3.24526 21.4016V9.18654H3.29597Z" transform="translate(177.932 35.5853)" fill="black"/>
<path d="M13.6403 8.63131C13.6403 5.80468 12.6768 3.079 9.0766 3.079C6.49053 3.079 4.2087 4.23994 2.48465 5.45135L0.963432 2.8771C2.99172 1.56474 6.13558 -7.70195e-07 9.68509 -7.70195e-07C15.1108 -7.70195e-07 17.3926 3.58376 17.3926 9.08559V22.613H14.2995L13.9952 19.9883H13.8938C11.7641 21.7045 9.27943 23.1682 6.54123 23.1682C2.78889 23.1682 -3.09493e-06 20.8464 -3.09493e-06 16.9093C-3.09493e-06 12.0636 4.2087 9.64082 13.6403 8.63131ZM7.60609 20.1397C8.06246 20.1397 8.51882 20.0892 8.92448 19.9883C11.7134 19.3826 13.6403 16.7579 13.6403 13.9312V11.0541C6.18628 11.9627 3.70164 13.7798 3.70164 16.6064C3.70164 19.0797 5.37497 20.1397 7.60609 20.1397Z" transform="translate(192.383 41.1879)" fill="black"/>
<path d="M9.63439 8.58083C12.1698 8.58083 13.8938 9.53987 15.8207 11.1046L15.6178 7.31895V-7.70195e-07H19.4209V31.1939H16.3277L16.0235 28.6196H15.8714C14.1473 30.2853 11.7641 31.7491 9.17801 31.7491C3.60021 31.7491 6.18985e-06 27.5596 6.18985e-06 20.1902C6.18985e-06 13.0227 4.56366 8.58083 9.63439 8.58083ZM9.98933 28.5691C11.0035 28.5691 12.0176 28.3168 12.9304 27.812C14.6544 26.853 15.6178 25.0358 15.6178 23.1178V17.1617C15.6178 14.1836 13.2346 11.7103 10.2936 11.7103H10.2429C6.69336 11.7103 3.85375 15.0922 3.85375 20.1397C3.85375 25.3892 6.08487 28.5691 9.98933 28.5691Z" transform="translate(213.579 32.6072)" fill="black"/>
</svg>
