<svg width="30" height="30" viewBox="0 0 30 30" fill="none" xmlns="http://www.w3.org/2000/svg">
<path d="M8.81512 29.9091C7.57067 29.8846 6.33941 29.6489 5.17391 29.212C4.17733 28.8266 3.27226 28.2373 2.51673 27.4817C1.7612 26.7261 1.17188 25.821 0.786549 24.8244C0.350694 23.6586 0.115018 22.4274 0.089479 21.183C0.0187617 19.6041 0 19.0859 0 15.1429V14.8542C0 10.9141 0.0187617 10.3916 0.089479 8.81555C0.114908 7.57113 0.350587 6.33998 0.786549 5.17416C1.1639 4.17313 1.7549 3.26639 2.5184 2.51708C3.2674 1.75424 4.17358 1.16371 5.17391 0.786587C6.33954 0.350148 7.57072 0.114442 8.81512 0.0894833C10.4142 0.0173193 10.9251 0 14.9993 0C19.0735 0 19.5829 0.0173193 21.1834 0.0894833C22.4273 0.115186 23.6579 0.350871 24.8232 0.786587C25.8242 1.16395 26.7309 1.75498 27.4802 2.51852C28.2441 3.26745 28.8352 4.1743 29.212 5.1756C29.6487 6.3407 29.8845 7.57152 29.9091 8.81555C29.9827 10.4161 30 10.9271 30 15.0014C30 19.0758 29.9827 19.5853 29.9091 21.1859C29.8837 22.4295 29.6475 23.6598 29.2106 24.8244C28.8251 25.8209 28.2357 26.726 27.4802 27.4815C26.7247 28.2371 25.8197 28.8265 24.8232 29.212C23.6577 29.6488 22.4264 29.8845 21.182 29.9091C19.5815 29.9827 19.0706 30 14.9978 30C10.9251 30 10.4156 29.9827 8.81512 29.9091ZM8.9378 2.78986C7.98709 2.80161 7.04545 2.97638 6.15385 3.30655C5.4999 3.546 4.90805 3.92923 4.42199 4.42798C3.92406 4.91189 3.54088 5.50124 3.30062 6.1527C2.97008 7.04475 2.79531 7.98697 2.78395 8.93823C2.71179 10.5258 2.69592 10.9949 2.69592 15C2.69592 19.0051 2.71179 19.4742 2.78395 21.0618C2.79519 22.013 2.96996 22.9553 3.30062 23.8473C3.54088 24.4988 3.92406 25.0881 4.42199 25.572C4.90805 26.0708 5.4999 26.454 6.15385 26.6934C7.04532 27.0241 7.98704 27.1989 8.9378 27.2101C10.5253 27.2823 10.9944 27.2967 14.9993 27.2967C19.0042 27.2967 19.4732 27.2823 21.0608 27.2101C22.012 27.199 22.9542 27.0243 23.8462 26.6934C24.4928 26.4438 25.0801 26.0616 25.5702 25.5714C26.0604 25.0813 26.4425 24.494 26.6922 23.8473C27.023 22.9553 27.1977 22.0131 27.2088 21.0618C27.281 19.4742 27.2954 19.0051 27.2954 15C27.2954 10.9949 27.281 10.5258 27.2088 8.93823C27.1976 7.98696 27.0228 7.04471 26.6922 6.1527C26.4528 5.50079 26.0695 4.91126 25.5708 4.42798C25.0869 3.93002 24.4976 3.54682 23.8462 3.30655C22.9541 2.97624 22.0119 2.80147 21.0608 2.78986C19.4732 2.71769 19.0042 2.70326 14.9993 2.70326C10.9944 2.70326 10.521 2.71769 8.9378 2.78986ZM7.29687 15C7.29658 13.4765 7.74808 11.9871 8.59426 10.7202C9.44043 9.45327 10.6433 8.46576 12.0507 7.88253C13.4581 7.2993 15.0068 7.14656 16.5011 7.44361C17.9953 7.74066 19.3678 8.47416 20.4452 9.55136C21.5225 10.6286 22.2563 12.0011 22.5536 13.4953C22.8509 14.9895 22.6985 16.5384 22.1155 17.946C21.5326 19.3535 20.5453 20.5566 19.2787 21.4031C18.012 22.2495 16.5227 22.7013 14.9993 22.7013C12.9567 22.7013 10.9978 21.89 9.55336 20.4458C8.10892 19.0015 7.29725 17.0427 7.29687 15ZM9.99856 15C9.99884 15.9887 10.2923 16.9551 10.8417 17.777C11.3911 18.599 12.1719 19.2396 13.0854 19.6178C13.9988 19.996 15.0039 20.0949 15.9735 19.9019C16.9431 19.709 17.8338 19.2329 18.5329 18.5338C19.2319 17.8346 19.708 16.9439 19.901 15.9743C20.0939 15.0046 19.995 13.9995 19.6168 13.086C19.2386 12.1725 18.5981 11.3917 17.7762 10.8422C16.9543 10.2927 15.9879 9.99932 14.9993 9.99904C13.6733 9.99942 12.4017 10.5265 11.4642 11.4643C10.5267 12.4021 10 13.6739 10 15H9.99856ZM21.2051 6.99269C21.2051 6.63679 21.3106 6.28888 21.5083 5.99294C21.706 5.697 21.987 5.46632 22.3157 5.33006C22.6445 5.19379 23.0063 5.15807 23.3553 5.2274C23.7044 5.29672 24.0251 5.46799 24.2768 5.71955C24.5286 5.97111 24.7001 6.29166 24.7697 6.64069C24.8393 6.98971 24.8039 7.35154 24.6679 7.68043C24.5319 8.00932 24.3014 8.29051 24.0057 8.48844C23.7099 8.68637 23.3621 8.79217 23.0062 8.79246C22.5289 8.79246 22.0711 8.60284 21.7336 8.26532C21.3961 7.92779 21.2065 7.47002 21.2065 6.99269H21.2051Z" fill="white"/>
</svg>
