<svg width="14" height="30" viewBox="0 0 14 30" fill="none" xmlns="http://www.w3.org/2000/svg">
<path d="M13.4521 15.0244H9.22658V30H2.97589V15.0244H-1.7373e-05V9.7284H2.97589V6.29364C2.90885 5.45182 3.02628 4.60553 3.32005 3.81329C3.61383 3.02106 4.07695 2.30177 4.67741 1.70511C5.27787 1.10846 6.00137 0.648688 6.79787 0.357565C7.59437 0.0664423 8.44489 -0.0490746 9.29064 0.018982L13.9274 0.0359696V5.17752H10.5587C10.3716 5.16962 10.185 5.20265 10.0121 5.2743C9.83914 5.34596 9.68413 5.45452 9.55793 5.59227C9.43173 5.73002 9.33742 5.89363 9.28165 6.07159C9.22588 6.24955 9.20999 6.43751 9.23513 6.62224V9.7284H14L13.4521 15.0244Z" fill="white"/>
</svg>
