<svg width="323" height="76" viewBox="0 0 323 76" version="1.1" xmlns="http://www.w3.org/2000/svg" xmlns:xlink="http://www.w3.org/1999/xlink">
<title>Boton</title>
<desc>Created using Figma</desc>
<g id="Canvas" transform="translate(497 -1708)">
<g id="Boton">
<use xlink:href="#path0_fill" transform="translate(-497 1708)" fill="#2F80ED"/>
</g>
</g>
<defs>
<path id="path0_fill" d="M 322.716 44.7169C 324.197 50.4745 319.754 56.1521 312.348 58.0713L 252.841 65.6681C 209.713 65.6681 166.586 65.6681 23.8726 63.7489L 11.9363 63.7489C 4.44345 61.9896 0 58.1512 0 52.4737C 4.44343 28.6592 1.48115 19.9852 1.48115 18.0082C 1.48115 14.1699 2.9623 12.2507 4.44345 10.4114L 13.3303 4.65388C 20.7361 0.815507 28.229 0.815505 35.6347 2.73469C 168.067 8.49225 202.22 4.73384 234.98 4.73384C 255.803 2.81465 276.626 6.65304 297.45 0.895473C 318.273 -4.8621 321.148 18.0083 322.716 44.7169ZM 220.081 76C 186.193 76 173.293 76 153.951 76L 35.7218 74.0808C 31.2784 74.0808 23.8726 74.0808 21.0651 71.1718C 19.535 69.5864 26.7478 65.828 37.203 67.6672C 197.777 75.3439 257.284 71.5056 316.704 65.748C 318.186 65.748 319.667 65.748 321.148 65.748L 322.629 67.6672C 322.629 69.5864 321.148 69.5864 321.148 69.5864C 315.158 71.1718 307.488 72.4472 298.601 72.4472C 273.335 74.4464 250.239 74.0808 220.081 76Z"/>
</defs>
</svg>
