<svg width="1063" height="515" viewBox="0 0 1063 515" version="1.1" xmlns="http://www.w3.org/2000/svg" xmlns:xlink="http://www.w3.org/1999/xlink">
<title>color_letras</title>
<desc>Created using Figma</desc>
<g id="Canvas" transform="translate(867 -1118)">
<g id="color_letras">
<g id="Vector">
<use xlink:href="#path0_fill" transform="translate(-186.154 1379.3)" fill="#F79435"/>
</g>
<g id="Vector">
<use xlink:href="#path1_fill" transform="translate(-679.98 1251.53)" fill="#F79435"/>
</g>
<g id="Vector">
<use xlink:href="#path2_fill" transform="translate(-551.792 1406.81)" fill="#F79435"/>
</g>
<g id="Vector">
<use xlink:href="#path3_fill" transform="translate(-552.958 1410.03)" fill="#F79435"/>
</g>
<g id="Vector">
<use xlink:href="#path4_fill" transform="translate(-187.32 1382.52)" fill="#F79435"/>
</g>
<g id="Vector">
<use xlink:href="#path5_fill" transform="translate(-309.767 1380.64)" fill="#F79435"/>
</g>
<g id="Vector">
<use xlink:href="#path6_fill" transform="translate(-329.682 1387.63)" fill="#F79435"/>
</g>
<g id="Vector">
<use xlink:href="#path7_fill" transform="translate(-741.249 1527.4)" fill="#F79435"/>
</g>
<g id="Vector">
<use xlink:href="#path8_fill" transform="translate(-319.186 1383.24)" fill="#F79435"/>
</g>
<g id="Vector">
<use xlink:href="#path9_fill" transform="translate(-327.349 1386.65)" fill="#F79435"/>
</g>
<g id="Vector">
<use xlink:href="#path10_fill" transform="translate(-322.146 1384.68)" fill="#F79435"/>
</g>
<g id="Vector">
<use xlink:href="#path11_fill" transform="translate(-311.92 1381.27)" fill="#F79435"/>
</g>
<g id="Vector">
<use xlink:href="#path12_fill" transform="translate(-341.164 1391.93)" fill="#F79435"/>
</g>
<g id="Vector">
<use xlink:href="#path13_fill" transform="translate(-343.227 1392.92)" fill="#F79435"/>
</g>
<g id="Vector">
<use xlink:href="#path14_fill" transform="translate(85.7427 1351.26)" fill="#F79435"/>
</g>
<g id="Vector">
<use xlink:href="#path15_fill" transform="translate(-339.101 1390.5)" fill="#F79435"/>
</g>
<g id="Vector">
<use xlink:href="#path16_fill" transform="translate(-314.522 1382.17)" fill="#F79435"/>
</g>
<g id="Vector">
<use xlink:href="#path17_fill" transform="translate(-64.2443 1341.75)" fill="#F79435"/>
</g>
<g id="Vector">
<use xlink:href="#path18_fill" transform="translate(-867 1118)" fill="#A1FFE3"/>
</g>
<g id="Vector">
<use xlink:href="#path19_fill" transform="translate(-282.228 1369)" fill="#F79435"/>
</g>
<g id="Vector">
<use xlink:href="#path20_fill" transform="translate(-84.1588 1344.09)" fill="#F79435"/>
</g>
<g id="Vector">
<use xlink:href="#path21_fill" transform="translate(-299.272 1375.89)" fill="#F79435"/>
</g>
<g id="Vector">
<use xlink:href="#path22_fill" transform="translate(-325.017 1385.66)" fill="#F79435"/>
</g>
<g id="Vector">
<use xlink:href="#path23_fill" transform="translate(-272.36 1365.23)" fill="#F79435"/>
</g>
<g id="Vector">
<use xlink:href="#path24_fill" transform="translate(-751.834 1531.97)" fill="#F79435"/>
</g>
<g id="Vector">
<use xlink:href="#path25_fill" transform="translate(-752.911 1538.78)" fill="#F79435"/>
</g>
<g id="Vector">
<use xlink:href="#path26_fill" transform="translate(-796.776 1570.86)" fill="#F79435"/>
</g>
<g id="Vector">
<use xlink:href="#path27_fill" transform="translate(-738.647 1525.7)" fill="#F79435"/>
</g>
<g id="Vector">
<use xlink:href="#path28_fill" transform="translate(-684.735 1477.59)" fill="#F79435"/>
</g>
<g id="Vector">
<use xlink:href="#path29_fill" transform="translate(-665.717 1460.03)" fill="#F79435"/>
</g>
<g id="Vector">
<use xlink:href="#path30_fill" transform="translate(-760.266 1543.44)" fill="#F79435"/>
</g>
<g id="Vector">
<use xlink:href="#path31_fill" transform="translate(-783.59 1560.73)" fill="#F79435"/>
</g>
<g id="Vector">
<use xlink:href="#path32_fill" transform="translate(-449.887 1371.59)" fill="#F79435"/>
</g>
<g id="Vector">
<use xlink:href="#path33_fill" transform="translate(-429.882 1369.26)" fill="#F79435"/>
</g>
<g id="Vector">
<use xlink:href="#path34_fill" transform="translate(-777.759 1559.21)" fill="#F79435"/>
</g>
<g id="Vector">
<use xlink:href="#path35_fill" transform="translate(-770.313 1553.39)" fill="#F79435"/>
</g>
<g id="Vector">
<use xlink:href="#path36_fill" transform="translate(-776.682 1554.91)" fill="#F79435"/>
</g>
<g id="Vector">
<use xlink:href="#path37_fill" transform="translate(-765.111 1549.17)" fill="#F79435"/>
</g>
</g>
</g>
<defs>
<path id="path0_fill" d="M 0 3.22548C 0 2.15032 0.627925 1.07515 1.16616 -5.46854e-06C 0.53822 -5.46854e-06 0.538231 0 0 0.0895965L 0 3.22548Z"/>
<path id="path1_fill" d="M 1.6147 2.73427e-06L 0 1.07516C 0.538231 1.07516 1.07646 0.537582 1.6147 2.73427e-06Z"/>
<path id="path2_fill" d="M -5.47517e-06 3.22549C -5.47517e-06 2.15033 0.627947 1.07516 1.16618 5.46854e-06C 0.538242 5.46854e-06 0.538225 1.09344e-05 -5.47517e-06 0.0896075L -5.47517e-06 3.22549Z"/>
<path id="path3_fill" d="M 5.47517e-06 1.16475L 5.47517e-06 1.70234C 5.47517e-06 1.16476 0.62793 0.627187 1.16616 1.09371e-05C 0.538225 0.627187 5.47517e-06 0.627176 5.47517e-06 1.16475Z"/>
<path id="path4_fill" d="M 1.09503e-05 1.16474L 1.09503e-05 1.70233C 1.09503e-05 1.16475 0.627936 0.627176 1.16617 -5.09297e-14C 0.538231 0.537579 1.09503e-05 0.627165 1.09503e-05 1.16474Z"/>
<path id="path5_fill" d="M 1.16617 -5.46854e-06C 0.538231 -5.46854e-06 0.538242 0.537585 1.09503e-05 0.627181C 0.538242 0.627181 1.16617 -5.46854e-06 1.16617 -5.46854e-06Z"/>
<path id="path6_fill" d="M 2.33231 1.09371e-05L 0 0.985551C 0.807346 0.627165 1.52497 0.268801 2.33231 1.09371e-05Z"/>
<path id="path7_fill" d="M -2.73758e-06 3.04629L 1.61469 1.52314C 2.15292 0.985556 2.15292 0.53759 2.69115 1.09371e-05L 1.07646 1.52314C 1.07646 1.97112 0.538228 2.50871 -2.73758e-06 3.04629Z"/>
<path id="path8_fill" d="M 4.66469 -1.09371e-05C 2.87059 0.0895856 1.70441 0.716767 1.09503e-05 1.43354C 1.79411 0.716767 3.49852 0.627165 4.66469 -1.09371e-05Z"/>
<path id="path9_fill" d="M 2.33234 5.46854e-06C 1.43529 0.358392 0.717619 0.627187 -2.19007e-05 0.985573L 2.33234 5.46854e-06Z"/>
<path id="path10_fill" d="M 2.96028 -5.46854e-06L 2.19007e-05 0.985562C 1.07648 0.627176 2.06323 0.268784 2.96028 -5.46854e-06Z"/>
<path id="path11_fill" d="M 2.15293 5.46854e-06L -1.09503e-05 0.895971C 0.71763 0.627181 1.525 0.358392 2.15293 5.46854e-06Z"/>
<path id="path12_fill" d="M 2.06322 0L 1.09503e-05 0.985567C 0.717652 0.627181 1.43528 0.26879 2.06322 0Z"/>
<path id="path13_fill" d="M 2.06323 5.46854e-06C 1.34559 0.358392 0.627958 0.627187 2.19007e-05 0.985573L 2.06323 5.46854e-06Z"/>
<path id="path14_fill" d="M -2.19007e-05 3.40466C 2.33231 3.76305 5.29258 4.03184 7.62492 3.85265L 35.7924 1.70233C 38.7526 1.52314 41.0849 0.806374 43.9555 5.46854e-06C 29.3336 1.25436 14.6219 2.86708 -2.19007e-05 3.40466Z"/>
<path id="path15_fill" d="M 4.66468 -5.46854e-06C 3.49851 0.0895911 1.7044 0.716772 0 1.43354C 1.7941 1.34395 3.49851 0.62717 4.66468 -5.46854e-06Z"/>
<path id="path16_fill" d="M 2.19007e-05 1.07515L 2.51175 5.46854e-06C 1.70441 0.268795 0.897073 0.447994 2.19007e-05 0.53759L 2.19007e-05 1.07515Z"/>
<path id="path17_fill" d="M 2.19007e-05 0.546345L 0.627914 0.546345L 1.79412 0.456743L 1.16618 0.00876055C 0.538242 -0.080836 2.19007e-05 0.546345 2.19007e-05 0.546345Z"/>
<path id="path18_fill" d="M 1062.9 261.805C 1062.27 259.206 1059.94 257.325 1055.28 258.669C 1052.94 258.848 1050.61 259.027 1048.82 259.654C 1047.65 259.744 1047.02 259.296 1047.02 258.221C 1047.02 258.221 1047.65 257.683 1048.19 257.594C 1049.98 256.966 1051.69 256.787 1053.48 256.16C 1055.81 255.981 1057.61 254.816 1059.31 253.651C 1060.48 253.024 1061.11 251.949 1060.48 250.963C 1060.48 249.351 1059.31 248.903 1058.15 248.992L 1052.85 249.351C 1049.36 250.157 1045.86 251.501 1042.9 251.68C 1027.65 252.307 1012.4 256.07 997.147 256.698C 991.316 257.146 984.857 257.593 979.026 258.579C 976.066 259.296 973.195 259.565 970.235 259.206C 964.943 259.565 959.65 259.475 954.447 259.833C 940.363 260.909 926.908 258.758 913.452 256.07C 912.824 255.622 911.658 255.174 910.492 254.726C 907.531 253.92 905.827 251.949 905.827 249.261C 905.199 247.738 905.199 246.663 905.199 245.588C 904.571 237.165 900.534 230.625 896.408 223.636C 894.614 220.053 891.115 219.336 886.989 220.68C 884.029 221.397 881.696 222.651 879.364 223.368C 869.945 227.758 862.41 234.657 854.785 241.018C 852.004 243.168 849.223 245.408 846.532 247.827C 846.263 247.2 845.904 246.573 845.455 245.946C 843.661 245.05 843.661 242.9 843.123 241.377C 841.957 237.793 840.163 236.897 836.126 238.778L 829.667 241.914C 827.335 243.168 825.003 244.333 822.67 244.064C 819.172 244.333 815.673 245.677 812.085 246.394C 808.587 247.738 805.088 248.007 800.962 248.275C 795.669 248.634 790.376 249.619 785.174 250.515L 751.803 254.637C 743.012 255.802 734.221 255.981 725.43 256.07C 702.017 256.25 679.68 254.278 659.766 243.616C 656.267 241.735 654.473 241.914 651.603 245.856C 648.642 249.799 643.978 250.605 639.313 252.576L 638.147 252.666L 636.353 251.232C 636.353 250.695 636.353 250.157 636.981 249.619C 636.981 249.082 637.609 249.082 638.147 248.992C 639.313 247.827 641.645 247.648 641.645 246.125C 641.645 245.05 639.313 244.154 636.981 244.871C 632.316 245.767 628.19 247.111 625.229 249.978C 620.295 254.189 615.362 258.579 610.876 263.148C 608.724 263.328 607.019 263.955 605.943 264.582C 597.78 268.883 589.527 272.646 582.53 276.857C 574.366 281.695 566.114 284.92 557.322 286.623C 550.864 288.146 545.033 290.207 539.74 293.253C 535.614 295.134 531.577 296.478 527.451 297.374C 520.454 298.987 513.995 301.585 507.536 304.632C 499.911 307.857 492.286 310.545 484.123 312.695C 482.329 313.323 481.163 313.412 479.458 313.591C 475.96 314.398 474.166 312.427 474.794 309.201C 475.422 308.664 475.422 308.126 475.422 307.588C 477.754 301.585 480.714 296.12 485.379 292.088L 486.007 292.088C 483.675 290.655 484.213 289.579 485.379 288.415C 488.339 284.024 491.838 279.993 494.798 275.602C 497.758 270.675 501.257 266.195 504.755 261.715L 511.752 253.293C 517.045 245.498 522.876 238.778 529.334 231.431C 533.461 226.951 537.498 222.92 541.086 217.902C 549.249 207.24 558.668 197.116 567.997 186.364C 574.456 179.555 580.915 172.746 587.374 165.399C 593.205 158.679 600.291 153.393 606.75 148.107C 609.082 145.867 610.876 144.075 612.581 141.835C 616.707 137.355 619.578 131.8 625.498 129.291L 627.292 127.589C 630.791 122.572 635.456 119.077 639.582 114.508C 642.542 111.641 644.875 109.401 644.875 105.19C 644.875 104.115 646.041 103.487 646.669 102.412L 648.463 100.71L 647.835 100.71C 653.128 93.9902 659.586 88.7936 666.045 82.9699C 670.172 78.938 674.836 74.9062 678.963 71.5015C 681.923 68.6344 684.794 65.7673 688.382 64.513L 690.176 62.8106L 689.548 62.8106L 693.046 60.9291C 693.046 60.3915 693.674 59.854 694.213 59.2268C 694.84 56.5389 696.545 54.8365 698.877 53.0446C 701.837 50.1775 705.336 47.848 708.834 44.8913C 718.254 36.8276 727.583 28.764 737.54 21.1482C 738.706 19.9835 739.872 18.9083 741.667 18.1916C 742.833 17.0268 743.999 15.9516 744.627 14.7869C 745.255 12.6366 743.999 10.1279 741.128 9.76949C 739.334 9.4111 737.63 9.5007 735.297 9.14231C 734.67 9.14231 733.503 8.78393 733.503 8.24635C 733.503 7.70877 734.131 6.63361 734.131 6.63361C 735.298 5.46885 736.464 4.84168 737.092 3.76652C 737.72 3.76652 738.258 2.60176 737.72 2.15378C 737.72 1.07862 736.553 0.630641 735.387 0.182658C 733.055 -0.175728 731.261 0.00346489 728.928 0.630641C 725.43 1.97459 722.47 3.76652 719.509 5.55845C 710.718 11.4718 703.093 18.9083 694.93 25.3593L 678.514 37.9028C 669.095 44.8913 662.098 54.3886 652.141 60.3915L 649.181 63.2586C 647.386 65.4985 645.054 67.2905 642.722 69.5304L 609.351 100.531C 599.394 110.207 590.603 120.869 579.48 129.65C 570.061 138.251 561.359 147.39 552.568 156.439C 549.608 159.306 547.903 163.069 544.943 165.936C 537.946 171.76 532.026 177.942 526.733 184.662C 524.401 188.515 521.44 191.382 518.57 194.786C 512.111 202.671 506.28 211.003 498.027 217.902L 495.067 221.307C 491.569 227.937 486.904 232.954 482.15 238.599C 478.023 243.079 474.525 247.111 472.192 252.486C 471.026 254.726 469.232 256.877 466.9 258.669C 462.773 262.163 460.351 266.105 458.647 271.123C 458.378 271.302 458.198 271.481 458.019 271.571C 457.66 271.571 457.301 271.571 457.032 271.481C 453.534 271.75 450.035 273.094 446.447 273.81C 442.948 275.154 439.45 275.423 435.323 275.692C 430.031 276.05 424.738 277.036 419.535 277.932L 386.165 282.053C 377.374 283.218 368.583 283.397 359.792 283.487C 336.379 283.666 314.042 281.695 294.128 271.033C 290.629 269.151 288.835 269.331 285.964 273.273C 283.004 277.215 278.34 278.022 273.675 279.993L 272.509 280.082L 270.715 278.649C 270.715 278.111 270.715 277.574 271.343 277.036C 271.343 276.498 271.97 276.498 272.509 276.409C 273.675 275.244 276.007 275.065 276.007 273.542C 276.007 272.467 273.675 271.571 271.343 272.287C 266.678 273.183 262.551 274.527 259.591 277.394C 250.8 284.92 242.009 292.984 235.55 301.854C 230.258 308.574 227.387 315.652 227.387 323.537C 227.387 328.823 228.553 333.482 229.181 338.678C 229.271 339.037 229.36 339.485 229.45 339.843C 228.105 341.097 226.759 342.262 225.234 343.337C 221.556 346.473 217.878 350.057 215.187 353.551C 213.034 356.06 210.971 358.121 208.28 360.271C 200.924 365.557 194.555 372.277 188.724 378.818C 186.571 381.326 184.508 382.939 182.355 384.552C 178.677 387.24 175.448 389.838 172.846 393.332C 171.232 395.393 169.168 397.454 167.554 398.977C 162.799 402.65 158.583 406.772 154.367 410.893C 150.689 414.477 146.473 418.15 142.705 421.286C 136.875 426.483 131.044 431.232 125.303 435.891C 124.226 436.876 123.15 438.399 121.625 439.026C 116.87 442.252 112.654 446.373 108.438 449.957C 106.823 451.48 105.298 453.004 103.145 454.168C 96.7763 458.917 92.0219 464.472 85.2043 468.862C 84.6661 468.862 83.5896 469.489 83.5896 469.937C 80.9882 473.969 76.6823 476.119 72.4662 478.807C 67.1736 481.585 62.4192 484.81 57.1266 488.036C 51.834 490.813 46.5414 493.143 40.7106 494.935C 37.0327 496.189 33.3548 496.01 30.6636 493.322L 29.0489 491.082L 29.5871 491.082C 26.9857 489.38 25.9092 486.602 25.371 483.825C 23.2181 476.836 23.2181 469.221 23.7563 461.605C 23.7563 459.723 24.8328 458.2 25.9092 456.229C 26.4475 454.795 26.9857 453.272 26.4475 451.928L 26.4475 450.943C 28.0622 446.105 29.5871 441.177 26.9857 436.607C 26.4475 435.711 26.9857 434.726 28.0622 433.651C 30.2151 432.038 30.6636 430.156 30.2151 428.275C 29.6768 426.931 30.2151 425.408 30.7533 424.422C 31.8298 422.899 32.9062 420.928 33.3548 419.494C 35.5077 412.685 37.5709 406.324 39.1856 399.604C 41.3385 390.913 44.4782 383.029 48.1561 374.696C 49.2326 372.277 50.7576 369.231 51.2958 366.812C 53.4487 360.45 56.0502 354.537 59.1898 348.624C 61.7913 343.158 65.0207 338.23 66.0971 331.959C 67.7118 329.898 68.6986 328.464 69.775 326.493C 73.453 319.594 77.6691 313.054 81.4367 306.155C 88.344 291.819 97.3145 278.828 106.285 265.836C 120.01 244.871 135.35 225.16 152.304 206.344C 153.918 204.821 155.443 203.298 156.52 200.789C 153.918 202.402 151.766 204.463 149.164 205.18C 150.779 201.775 153.38 199.177 156.52 197.026L 156.52 200.789C 158.673 199.714 160.198 197.653 162.351 195.593L 176.614 181.257C 180.292 178.121 182.983 175.075 185.584 171.043C 183.97 166.384 184.508 165.399 189.262 162.711C 189.801 162.173 190.877 162.084 191.415 161.098C 196.17 154.557 204.064 150.615 209.894 144.971C 211.509 143.895 213.034 143.268 214.649 142.731C 218.327 137.265 224.158 134.398 230.527 132.517C 226.311 137.086 221.018 140.401 214.649 142.731C 213.572 145.15 212.047 146.763 209.894 148.823C 205.14 152.945 200.386 157.156 195.093 161.367C 192.94 163.428 190.339 165.488 188.724 168.535C 191.864 166.832 193.478 165.309 195.631 163.248C 207.831 153.303 219.941 143.358 233.128 134.757C 241.56 128.933 250.082 124.005 258.515 118.629C 266.409 114.687 274.392 111.282 282.825 108.236C 291.795 104.742 300.228 104.563 309.288 106.713C 312.966 107.878 314.042 109.67 313.504 113.074C 312.966 114.508 312.966 115.941 312.427 117.465C 310.813 121.407 309.826 125.259 307.673 129.202C 299.151 147.3 289.732 165.04 278.788 182.153C 278.25 182.96 278.16 183.856 278.609 184.662C 281.031 189.231 287.4 191.471 293.141 190.217C 294.128 188.783 295.294 187.439 296.55 186.454C 298.164 183.497 299.689 180.003 301.304 177.046L 316.644 149.271C 318.258 146.315 319.783 143.806 322.474 141.208C 323.551 139.684 324.627 138.161 325.076 136.28L 326.691 130.456C 330.907 115.404 327.229 101.427 318.258 89.2416C 315.119 84.7618 310.364 81.8051 303.995 80.8195C 297.088 79.9236 289.732 80.9091 282.825 82.8803C 273.316 86.0161 263.807 88.6144 254.837 93.9902L 253.222 95.0654C 247.929 97.3949 242.637 99.6348 238.421 103.308L 235.281 105.011C 230.527 105.817 226.311 108.505 223.081 111.641C 222.005 112.626 220.48 113.253 218.865 114.329C 217.25 115.404 215.725 116.031 214.649 117.017C 207.742 122.303 201.462 127.051 194.555 131.8C 192.94 132.427 191.415 133.95 190.339 135.473C 187.199 138.52 183.97 141.208 180.83 143.358L 174.461 148.107C 168.092 153.841 161.813 159.485 155.982 165.667C 149.613 173.283 142.257 180.003 134.811 187.171C 133.197 188.694 131.672 190.217 130.595 191.74C 125.303 198.818 120.548 205.807 113.641 211.989L 110.501 215.573C 108.348 218.619 106.285 221.576 103.594 224.622C 98.8395 231.163 94.0851 237.255 89.3308 243.706L 87.1778 246.752C 85.5631 251.591 82.4235 255.622 79.2838 259.744C 76.6823 264.224 73.453 268.255 70.8515 272.735C 64.931 282.412 57.5751 291.461 53.8972 302.213C 53.359 303.646 52.2825 305.169 51.2958 306.244C 44.9267 317.623 38.6474 329.092 34.3415 341.277C 33.8033 342.71 33.2651 344.681 32.1886 346.204C 26.896 352.745 24.2945 360.54 22.1416 368.335C 21.0652 372.725 19.5402 376.578 17.3872 380.61C 15.7725 383.118 14.7858 386.075 13.7093 388.494L 8.95496 407.309C 5.27705 421.824 0.522676 435.98 1.06091 450.674C 1.06091 451.66 1.06091 452.556 0.522676 453.541C -0.553786 463.128 -0.015555 472.536 2.58589 481.406C 3.66236 487.498 5.72557 492.605 9.94172 496.995C 13.6196 501.027 17.8358 503.984 22.1416 507.478C 31.1121 514.915 50.6679 517.692 64.3927 511.868C 73.3633 508.374 81.7955 503.446 89.2411 498.16C 102.966 488.125 116.153 477.105 128.891 466.174C 146.832 450.584 164.863 434.995 181.727 418.509L 235.64 366.901C 238.78 363.855 241.74 360.809 244.61 357.673C 251.159 360.719 259.412 361.884 268.831 359.554C 278.788 356.687 288.207 352.835 296.37 346.921C 298.703 345.667 302.829 344.323 299.869 340.829C 299.241 340.829 299.869 339.754 300.497 339.216C 305.161 334.109 310.454 329.002 314.58 323.895C 316.374 320.58 317.541 317.354 318.707 314.129C 321.039 310.276 322.833 309.649 327.498 309.739C 328.664 310.187 330.458 310.007 332.163 310.455C 339.788 311.979 347.951 312.427 355.576 312.875C 367.865 314.039 379.617 313.681 391.906 311.172C 402.491 309.828 413.615 307.947 424.11 307.14C 430.838 306.603 436.848 305.259 442.859 303.109C 442.41 304.721 442.051 306.334 441.693 307.947C 440.526 312.247 441.065 316.458 442.859 320.49C 445.191 323.985 446.985 328.106 448.69 331.6C 453.982 339.664 462.145 343.785 472.103 345.129C 477.933 345.756 484.392 344.771 490.223 343.248C 500.808 339.843 511.304 336.349 521.889 332.407C 530.68 329.092 538.843 325.328 547.096 322.103C 563.064 316.279 578.403 309.559 593.205 301.854C 593.563 304.9 594.191 307.947 594.55 311.172C 597.51 324.612 612.671 337.155 634.379 331.869C 644.336 329.002 653.756 325.149 661.919 319.236C 664.251 317.982 668.377 316.638 665.417 313.143C 664.789 313.143 665.417 312.068 666.045 311.531C 670.71 306.424 676.002 301.317 680.129 296.21C 681.923 292.895 683.089 289.669 684.255 286.444C 686.588 282.591 688.382 281.964 693.046 282.053C 694.213 282.501 696.007 282.322 697.711 282.77C 705.336 284.293 713.499 284.741 721.124 285.189C 733.414 286.354 745.165 285.996 757.455 283.487C 768.04 282.143 779.163 280.261 789.659 279.455C 793.696 279.186 797.463 278.559 801.141 277.574C 796.118 285.368 791.184 293.253 786.16 301.317C 784.994 303.557 783.2 306.244 783.828 308.843C 785.622 312.427 784.994 316.638 784.994 320.311C 784.366 322.461 784.994 323.985 787.326 324.88C 789.659 325.776 790.287 327.3 791.453 328.823C 792.619 331.869 798.45 332.496 800.244 330.256C 807.869 323.357 816.032 316.458 822.491 308.574C 824.285 306.872 825.989 304.632 826.617 302.481C 826.617 300.331 828.411 299.166 830.744 299.525C 831.91 299.435 833.076 298.808 834.242 297.643C 836.036 295.403 838.907 294.149 839.535 290.923C 840.163 289.311 841.329 287.608 842.495 286.533L 844.289 286.444C 845.455 285.816 846.622 284.652 847.25 283.577L 850.748 280.172C 852.542 279.545 854.246 278.828 855.413 277.753C 859.539 274.258 864.204 271.302 868.33 268.883C 868.958 268.345 869.496 267.718 870.124 267.18L 868.958 267.27L 868.33 267.27C 868.958 266.732 869.496 266.105 870.124 265.568L 878.915 258.579C 884.746 253.382 887.707 254.189 888.873 260.998C 890.667 267.718 893.537 272.735 898.83 277.126C 906.455 283.397 915.784 287.429 926.369 288.773C 938.121 290.027 950.41 290.117 962.7 289.221C 990.239 287.16 1018.41 282.412 1045.95 276.678C 1048.28 276.498 1050.61 275.782 1052.94 275.065L 1054.74 273.9C 1055.37 273.9 1055.37 273.363 1055.37 272.825L 1054.2 272.914C 1050.07 273.721 1046.04 275.154 1041.91 275.961C 1029.62 277.932 1017.33 279.903 1004.95 282.412C 992.034 284.472 979.206 285.906 966.288 286.354C 956.869 287.071 947.54 287.25 938.749 285.816C 937.583 285.906 936.416 285.458 935.25 285.01C 934.622 285.01 934.084 284.562 934.084 284.024C 934.084 284.024 934.712 283.487 935.25 283.397L 942.247 282.86C 953.371 282.591 964.494 283.308 975.618 281.964C 982.076 281.516 989.073 280.441 995.532 279.455C 1014.91 277.484 1033.66 273.99 1052.41 269.868C 1054.2 269.241 1055.9 269.062 1057.7 268.435C 1061.11 266.643 1063.53 264.403 1062.9 261.805ZM 146.921 207.778L 146.921 207.33L 147.46 207.33C 146.921 207.33 146.921 207.33 146.921 207.778ZM 165.401 187.887C 165.401 188.335 164.862 188.873 164.324 189.411C 163.786 188.963 163.248 189.052 163.786 188.515C 164.324 187.977 164.862 187.529 165.401 187.439C 165.401 187.439 165.939 187.798 165.401 187.887ZM 170.693 182.691L 170.693 182.243C 172.308 178.838 174.909 176.688 179.126 174C 175.986 179.017 172.757 182.064 170.693 182.691ZM 231.962 131.083C 232.5 128.216 234.563 126.155 237.255 124.543C 240.932 122.84 243.624 121.228 247.84 120.869C 243.085 125.528 238.331 128.664 231.962 131.083ZM 303.278 100.083C 303.278 101.516 302.201 101.606 301.125 102.144C 299.51 102.233 297.985 102.86 296.37 102.95C 283.722 104.831 272.06 109.042 260.937 114.687C 256.721 116.927 253.043 120.063 248.288 120.421C 249.903 118.36 251.428 116.837 253.581 115.314C 265.243 109.222 276.276 103.667 289.014 100.8C 293.231 99.9932 297.447 99.1868 301.663 99.366L 303.278 100.083ZM 246.763 106.175C 247.84 106.086 248.916 105.996 249.903 105.907L 246.763 104.742C 251.518 101.068 256.81 98.2909 262.641 97.3949C 264.256 95.8718 265.781 94.7966 267.395 93.7214C 276.366 90.2272 285.875 87.0913 295.383 86.3745C 296.998 86.2849 298.523 86.6433 300.138 86.4641L 301.214 87.3601C 300.676 87.3601 300.138 87.8977 300.138 87.8977C 299.061 87.9873 298.523 87.9873 297.985 88.5248C 296.908 89.5104 298.523 88.9728 298.523 89.4208C 299.061 89.4208 299.061 89.8688 299.6 89.7792C 299.061 90.3168 298.523 90.3168 298.523 90.3168C 290.091 92.8255 281.569 94.8862 273.675 96.9469C 271.522 97.5741 270.535 97.2157 271.522 95.2446L 262.551 97.3053C 261.475 98.2909 259.95 99.366 258.873 100.889C 256.272 103.487 253.043 105.1 249.903 105.817C 248.827 106.355 247.75 106.892 246.763 107.519L 246.763 106.175L 246.763 106.175ZM 234.653 113.343L 241.022 109.58C 240.484 109.132 239.946 109.222 240.484 108.236L 241.022 108.236C 241.022 108.684 241.022 109.222 241.022 109.67L 243.624 109.49C 237.255 114.687 230.437 118.54 222.453 122.034C 226.131 118.181 230.347 115.493 234.653 113.343ZM 137.413 195.682C 139.027 194.159 141.091 192.546 142.705 190.575C 146.921 185.468 151.676 180.899 156.43 176.24L 171.77 161.815C 173.384 160.292 175.448 158.231 178.139 157.066C 181.279 153.034 185.046 149.45 189.801 147.121C 190.339 147.121 190.877 146.583 191.415 146.046C 193.03 143.089 195.631 141.476 198.771 140.222C 200.386 137.265 202.987 135.115 206.127 134.398C 206.665 133.413 206.665 132.427 207.203 131.442C 207.742 130.904 208.28 130.456 208.818 129.918L 211.958 129.65C 214.111 126.603 216.712 124.991 220.39 123.826C 218.237 126.335 215.097 128.933 211.958 129.65C 210.343 132.158 208.28 133.234 206.127 134.398C 203.974 136.907 201.911 138.52 198.771 140.222C 196.618 142.283 194.555 144.791 191.415 146.046L 189.801 147.569C 186.661 151.601 182.893 154.737 178.677 157.425L 158.583 177.494C 153.291 183.139 147.46 188.335 142.167 194.428C 140.552 195.951 139.027 197.026 137.413 198.549L 137.413 195.682L 137.413 195.682ZM 137.413 217.992C 137.413 217.544 138.489 217.454 139.027 216.917L 139.027 217.365C 138.489 218.798 137.951 219.336 136.875 219.873C 136.875 219.873 136.336 219.873 136.336 219.425C 136.336 219.067 136.874 218.529 137.413 217.992ZM 34.3415 404.442C 34.3415 404.89 33.8033 404.98 33.265 404.532C 33.265 404.532 33.8033 404.532 33.8033 403.994L 34.3415 403.994L 34.3415 404.442ZM 36.4047 396.647C 36.4047 396.199 35.8665 396.199 35.8665 396.199C 35.8665 395.751 36.4047 395.662 36.4047 395.662L 36.943 396.11C 36.943 396.647 36.4047 396.647 36.4047 396.647ZM 60.1766 340.202L 59.6384 339.754L 59.6384 339.306C 60.1766 338.768 60.7148 339.216 60.7148 339.664C 60.7148 339.754 60.1766 339.754 60.1766 340.202ZM 69.2368 324.343C 67.6221 326.852 66.0971 329.36 65.5589 332.227C 63.9442 332.317 62.9574 331.511 62.9574 330.077L 61.3428 330.167C 61.881 329.629 62.4192 329.629 62.9574 330.077C 66.0971 323.178 69.8647 317.175 74.6191 310.635C 73.453 315.473 71.8383 319.863 69.2368 324.343ZM 89.2411 286.264C 88.7028 286.802 88.1646 287.788 87.6264 288.773L 87.6264 286.354C 88.2543 286.354 88.7925 286.264 89.2411 286.264L 89.2411 283.397C 90.8558 281.337 92.3807 279.365 95.0719 277.753C 93.9954 281.157 91.9322 283.666 89.2411 286.264ZM 118.306 244.602C 115.704 249.082 112.475 253.114 109.335 257.594L 106.734 260.64C 105.657 261.177 104.581 261.715 104.132 260.819C 103.594 260.819 103.056 259.923 103.594 259.475C 104.132 258.041 104.67 256.518 105.747 255.085C 107.9 251.591 110.501 248.096 114.179 244.96L 113.641 244.96C 115.256 242.004 117.857 239.853 120.997 239.137C 120.458 240.66 119.382 242.631 118.306 244.602ZM 131.044 228.027C 129.967 229.998 128.442 231.073 127.366 232.148C 127.904 230.715 127.904 228.743 129.519 227.758C 130.057 227.22 130.595 227.22 130.595 227.22C 131.044 227.489 131.044 228.027 131.044 228.027ZM 122.611 215.304C 124.226 211.899 126.289 208.853 129.967 207.151C 129.967 206.703 130.505 206.165 130.505 206.165L 130.505 206.613C 130.505 206.613 129.967 206.613 129.967 207.151C 128.353 210.645 126.289 213.154 122.611 215.304C 122.073 216.737 120.997 218.261 120.01 219.336C 120.458 217.902 121.535 216.379 122.611 215.304ZM 77.6691 279.007C 78.2073 275.154 80.2705 272.198 83.4999 269.51C 84.5764 266.105 86.1014 263.148 88.2543 260.64L 107.272 233.582C 108.886 231.521 110.411 229.55 112.564 227.937C 113.103 225.518 114.717 223.995 116.781 222.382C 115.704 224.353 114.628 226.324 112.564 227.937C 112.026 229.908 110.95 231.879 109.425 233.85L 88.2543 264.403C 86.6396 266.464 85.6529 267.897 83.4999 269.51C 82.4235 273.452 80.8088 276.409 77.6691 279.007C 74.5294 286.892 70.3133 294.328 64.4824 300.869C 67.0839 293.163 71.3 285.727 77.6691 279.007ZM 46.4517 332.675C 47.5282 330.256 48.6046 327.3 51.2061 325.687C 53.359 317.444 57.0369 310.545 62.8677 303.915C 60.7148 310.276 57.0369 316.727 53.359 323.178C 52.8208 324.164 51.7443 324.701 51.2061 325.687C 50.6678 328.106 49.5914 330.525 48.0664 333.034C 48.0664 333.482 47.5282 334.019 46.9899 334.019C 45.9135 333.661 46.4517 333.213 46.4517 332.675ZM 46.9899 370.216C 45.9135 373.621 44.837 376.578 43.312 379.982C 43.312 376.219 44.3885 372.815 45.9135 368.872L 46.9899 370.216ZM 32.1886 365.647C 32.7268 364.661 33.2651 364.124 33.8033 363.586C 35.418 355.433 38.0194 347.548 43.8503 341.008C 41.6973 349.251 38.0194 356.15 33.8033 363.586C 33.2651 364.124 33.265 365.02 33.265 365.557C 33.265 366.005 32.7268 366.095 32.1886 366.543L 32.1886 365.647L 32.1886 365.647ZM 30.6636 416.538C 31.2018 416 31.7401 416.448 31.7401 416.896C 31.7401 417.344 31.2018 417.434 31.2018 417.882C 30.6636 417.882 30.1254 417.971 30.1254 417.523C 30.1254 417.075 30.6636 416.538 30.6636 416.538ZM 20.6166 400.231C 20.6166 400.231 20.6166 400.679 20.0784 401.217C 20.0784 401.665 20.0784 402.202 19.5402 401.754C 19.5402 401.754 19.5402 401.306 20.0784 401.217C 20.0784 400.769 20.0784 400.231 20.6166 400.231C 21.1549 394.049 22.7696 388.225 26.4475 382.67C 25.371 388.494 23.7563 394.318 20.6166 400.231ZM 230.885 348.713L 232.769 347.459C 233.128 347.996 233.487 348.444 233.846 348.892C 233.038 349.699 232.052 350.416 230.975 351.132C 230.885 350.684 230.885 349.699 230.885 348.713ZM 224.068 353.999L 224.068 354.447L 223.53 354.447L 224.068 353.999ZM 61.7913 495.472C 59.6384 496.1 57.5751 497.175 55.9605 498.25C 55.4222 498.25 54.884 497.891 54.884 497.891L 54.884 496.906L 59.6384 493.232C 73.9015 484.99 87.0881 475.044 100.364 464.472C 117.767 450.764 134.183 436.249 150.599 421.286C 159.57 413.043 169.079 404.711 178.587 396.379L 193.389 381.953C 198.681 377.294 203.974 372.635 208.728 367.528C 210.881 365.02 212.944 363.407 216.084 361.705C 215.008 365.109 212.406 367.17 210.253 370.216L 208.639 371.739C 209.177 371.739 209.177 371.739 209.715 371.65L 208.639 372.635C 208.639 372.187 208.639 372.187 208.639 371.65L 208.639 371.202C 208.1 371.739 207.562 372.187 207.024 372.725L 204.422 375.771C 203.884 376.309 203.346 376.757 202.808 377.294L 203.884 377.205C 203.346 377.742 203.346 377.742 202.808 378.19L 201.193 379.714C 197.515 384.731 193.299 389.838 187.468 393.601C 185.854 394.676 184.329 395.751 182.176 395.393C 181.099 396.916 179.574 398.439 177.959 399.962C 179.036 400.858 179.036 401.754 177.959 402.829C 175.807 404.89 173.743 406.951 170.604 408.116L 170.604 406.682C 165.311 409.46 161.633 414.029 157.417 418.598L 160.557 418.33C 156.879 422.451 153.201 426.931 147.37 429.798L 150.51 425.318C 146.294 427.558 143.154 430.604 139.924 434.188L 143.064 433.919C 139.386 438.041 136.157 441.535 131.402 443.865C 130.326 445.836 128.263 447.897 126.648 449.42C 112.923 461.874 99.1983 473.342 83.8587 484.452C 80.7191 486.602 76.9515 489.201 73.2735 490.455C 72.1971 490.992 71.1206 491.53 70.1339 491.62L 70.1339 490.634C 67.6221 492.157 64.4824 493.86 61.7913 495.472ZM 228.822 370.306L 202.897 395.035C 191.236 406.324 179.126 417.703 166.926 429.081C 152.124 442.073 137.861 455.512 122.522 468.504C 113.551 476.299 104.042 484.183 93.4572 491.62C 89.2411 494.756 84.4867 497.533 80.2705 500.221C 78.1176 501.296 76.5926 501.923 74.4397 502.55C 73.9015 503.088 73.3632 503.088 72.825 502.192L 73.3633 501.206C 74.4397 500.221 75.9647 499.594 77.0412 498.519C 82.872 494.756 88.7028 490.993 93.9954 487.229C 116.153 470.385 136.247 452.645 156.341 434.099C 173.295 419.046 189.083 403.636 205.499 388.584C 214.469 380.341 222.902 372.098 231.962 363.317C 234.743 360.63 237.344 357.762 240.035 354.895C 240.753 355.433 241.56 355.881 242.368 356.418C 237.882 361.167 233.218 366.005 228.822 370.306ZM 264.794 342.441C 264.166 342.441 263.628 342.531 263 342.083C 262.372 342.083 261.834 342.173 261.834 341.097C 261.834 340.56 261.834 340.022 262.462 340.022C 267.126 338.051 272.419 336.618 277.712 335.722C 275.379 337.514 273.585 339.216 271.253 340.381L 275.379 340.112C 275.379 340.112 276.007 340.112 276.007 340.56L 276.007 341.097C 272.509 342.979 269.548 344.771 265.422 343.517C 265.422 343.427 264.794 342.979 264.794 342.441ZM 287.041 349.161C 285.875 350.863 282.914 352.118 281.21 352.745C 276.545 354.716 272.419 356.06 268.293 356.329L 267.126 356.418C 266.498 355.97 265.96 355.97 265.96 355.433C 265.96 354.895 265.96 354.358 266.588 354.358L 268.382 353.193C 273.675 351.222 278.34 349.788 283.004 347.907C 284.17 347.817 285.336 347.728 286.503 347.1C 286.503 347.1 287.669 347.548 287.669 348.086C 287.669 348.086 287.669 349.161 287.041 349.161ZM 296.46 306.334C 295.294 307.499 294.666 309.112 293.5 310.276C 288.207 317.534 281.21 323.357 272.419 328.196C 265.96 331.869 259.501 332.855 252.504 332.855C 249.006 333.123 248.378 331.6 249.006 328.375C 250.172 324.612 252.504 321.297 254.299 317.982C 255.465 316.817 254.926 315.831 253.671 315.921C 255.465 309.47 260.129 304.9 265.96 301.317L 272.957 296.03C 274.123 294.866 275.917 293.701 277.622 292.536C 281.12 290.207 284.081 290.475 287.041 292.895L 295.832 302.213C 296.998 303.109 296.998 304.721 296.46 306.334ZM 443.666 300.421C 438.822 302.033 433.709 303.109 428.237 303.825C 414.153 305.438 400.069 307.499 386.075 308.574C 381.411 309.47 377.284 309.201 373.158 309.022C 371.364 309.112 369.031 309.291 367.865 307.857C 370.198 306.603 372.53 306.424 374.862 306.244C 390.65 305.08 405.9 302.84 421.778 301.137C 427.609 300.152 433.529 299.166 439.36 297.733C 441.244 297.374 443.128 296.837 445.012 296.21C 444.563 297.554 444.115 298.987 443.666 300.421ZM 452.098 281.516C 449.407 282.591 447.165 283.845 445.191 286.175C 444.025 287.877 442.859 287.967 441.065 288.594C 439.271 289.221 436.938 289.938 435.234 290.117C 421.15 291.73 407.066 294.328 392.444 294.955C 391.817 294.955 390.65 295.045 388.946 294.149L 405.362 292.895C 403.568 290.923 401.863 291.551 400.697 291.64L 376.118 293.522C 373.786 293.701 370.826 293.432 367.955 293.611C 368.583 292.536 369.749 292.447 370.287 292.357C 383.205 290.834 396.033 288.863 408.95 287.877C 418.907 286.623 428.865 284.831 438.822 282.949C 444.115 282.143 449.048 280.978 453.892 278.828C 453.265 279.724 452.726 280.62 452.098 281.516ZM 536.062 323.626L 505.024 334.915C 499.194 336.976 492.107 338.499 485.648 339.574C 485.02 339.574 483.854 339.664 483.854 338.678C 483.854 338.678 484.482 337.603 485.02 337.514C 492.645 334.826 500.27 332.675 507.267 330.077L 558.847 310.366C 570.689 305.976 581.902 300.869 592.846 295.224C 592.846 295.582 592.846 295.851 592.846 296.21C 592.846 297.374 592.935 298.45 593.025 299.525C 575.084 309.112 555.259 315.831 536.062 323.626ZM 596.703 281.247C 596.165 281.605 595.627 281.874 595.268 282.233C 595.627 282.233 595.896 282.143 596.255 282.143C 595.985 282.681 595.806 283.129 595.537 283.666C 595.447 283.756 595.357 283.756 595.268 283.756C 593.474 285.996 590.603 287.25 588.271 288.504C 581.812 291.64 574.815 294.776 568.356 297.374C 550.146 304.005 531.398 310.724 513.277 317.892L 506.818 319.953C 505.024 320.042 505.024 319.057 505.024 317.982C 498.566 320.042 493.273 321.476 486.904 322.999C 485.738 323.626 483.944 323.716 482.778 323.805L 481.611 323.895C 481.611 323.357 481.611 322.82 482.239 322.82C 483.405 322.193 484.033 321.655 485.2 321.565C 493.991 319.326 502.154 315.562 510.407 312.337C 527.361 305.796 543.777 299.256 560.821 293.253C 574.815 288.683 587.822 282.681 600.202 275.782C 598.766 277.574 597.69 279.455 596.703 281.247ZM 630.432 314.935C 629.804 314.935 629.266 315.025 628.638 314.577C 628.01 314.577 627.472 314.667 627.472 313.591C 627.472 313.054 627.472 312.516 628.1 312.516C 632.765 310.545 638.057 309.112 643.35 308.216C 641.017 310.007 639.223 311.71 636.891 312.875L 641.017 312.606C 641.017 312.606 641.645 312.606 641.645 313.054L 641.645 313.591C 638.147 315.473 635.187 317.265 631.06 316.01C 631.06 315.921 630.432 315.473 630.432 314.935ZM 652.679 321.655C 651.513 323.357 648.553 324.612 646.848 325.239C 642.184 327.21 638.057 328.554 633.931 328.823L 632.765 328.912C 632.137 328.464 631.598 328.464 631.598 327.927C 631.598 327.389 631.598 326.852 632.226 326.852L 634.02 325.687C 639.313 323.716 643.978 322.282 648.642 320.401C 649.808 320.311 650.975 320.221 652.141 319.594C 652.141 319.594 653.307 320.042 653.307 320.58C 653.307 320.58 653.307 321.655 652.679 321.655ZM 662.098 278.828C 660.932 279.993 660.304 281.605 659.138 282.77C 653.845 290.027 646.848 295.851 638.057 300.689C 631.598 304.363 625.14 305.348 618.143 305.348C 614.644 305.617 614.016 304.094 614.644 300.869C 615.81 297.106 618.143 293.79 619.937 290.475C 621.103 289.311 620.565 288.325 619.309 288.415C 619.488 287.698 619.757 286.981 620.026 286.264C 621.013 285.548 621.91 284.472 622.269 282.949C 622 283.129 621.731 283.308 621.462 283.397C 623.794 279.455 627.382 276.409 631.598 273.81L 638.595 268.524C 639.762 267.36 641.556 266.195 643.26 265.03C 646.758 262.701 649.719 262.969 652.679 265.388L 661.47 274.706C 662.636 275.602 662.636 277.215 662.098 278.828ZM 803.384 274.617C 800.334 275.334 797.194 275.871 793.965 276.319C 779.881 277.932 765.797 279.993 751.803 281.068C 747.139 281.964 743.012 281.695 738.886 281.516C 737.092 281.605 734.759 281.785 733.593 280.351C 735.925 279.097 738.258 278.917 740.59 278.738C 756.378 277.574 771.628 275.334 787.506 273.631C 793.337 272.646 799.257 271.66 805.088 270.227C 805.537 270.137 805.985 270.047 806.434 269.958C 805.447 271.391 804.37 273.004 803.384 274.617ZM 816.481 254.637C 814.417 255.622 812.534 256.787 810.919 258.669C 809.753 260.371 808.587 260.461 806.793 261.088C 804.998 261.715 802.666 262.432 800.962 262.611C 786.878 264.224 772.794 266.822 758.172 267.449C 757.544 267.449 756.378 267.539 754.674 266.643L 771.09 265.388C 769.296 263.417 767.591 264.044 766.425 264.134L 741.846 266.016C 739.514 266.195 736.553 265.926 733.683 266.105C 734.311 265.03 735.477 264.94 736.015 264.851C 748.933 263.328 761.76 261.357 774.678 260.371C 784.635 259.117 794.593 257.325 804.55 255.443C 809.484 254.637 814.059 253.562 818.634 251.77C 817.826 252.755 817.109 253.651 816.481 254.637ZM 826.797 250.605C 826.348 250.784 825.989 250.963 825.541 251.232C 824.913 250.426 824.106 249.888 823.298 249.709C 823.926 249.53 824.733 249.171 825.541 249.082C 826.169 248.544 827.335 248.455 827.335 248.992C 827.963 249.978 827.335 250.605 826.797 250.605ZM 884.746 229.371L 884.746 228.833L 885.374 229.281L 884.746 229.371ZM 1023.07 265.836C 1023.7 265.299 1024.87 265.209 1025.4 265.12C 1026.03 265.12 1026.57 265.03 1027.2 265.478L 1023.07 265.836ZM 1033.03 261.446C 1032.4 261.984 1031.86 262.073 1030.7 262.163C 1023.07 263.776 1014.91 264.94 1006.66 266.105C 1003.16 266.912 999.659 267.18 996.698 268.435L 1020.11 266.643C 1018.95 267.27 1017.78 267.36 1016.61 267.987C 997.237 271.571 977.95 273.542 958.574 273.9C 953.909 274.258 949.155 274.079 945.118 272.287L 952.743 271.75C 948.078 270.495 942.786 271.481 938.121 269.689C 938.121 267.539 939.915 267.987 941.081 268.435C 961.624 268.435 982.076 266.374 1003.16 264.313C 1013.74 263.507 1024.24 261.715 1035.36 260.281C 1035.36 261.267 1034.19 261.357 1033.03 261.446Z"/>
<path id="path19_fill" d="M 2.19007e-05 1.25434L 2.96028 -5.46854e-06C 1.70441 0.0895911 0.538253 0.716761 2.19007e-05 1.25434Z"/>
<path id="path20_fill" d="M 1.09503e-05 1.25435C 2.96028 1.07516 6.45878 0.80638 9.41905 0.53759L 9.41905 5.46854e-06C 6.45878 0.179199 2.96028 0.447977 1.09503e-05 0.716767L 1.09503e-05 1.25435Z"/>
<path id="path21_fill" d="M 2.19007e-05 1.43356C 1.79412 0.80638 3.49848 0.089602 4.66465 5.46854e-06C 2.96025 0.179199 1.79412 0.80638 2.19007e-05 1.43356Z"/>
<path id="path22_fill" d="M 2.87059 0C 1.88383 0.358386 0.807357 0.716778 1.09503e-05 0.985567L 2.87059 0Z"/>
<path id="path23_fill" d="M 0.627914 1.61274C 0.627914 1.07516 0.627914 0.53759 0.627914 1.09371e-05L 2.19007e-05 0.537568C 0.627958 0.537568 0.627914 1.07516 0.627914 1.61274Z"/>
<path id="path24_fill" d="M -5.47517e-06 6.80933C 3.67791 5.107 6.36906 2.50869 8.97051 -1.09371e-05C 5.2926 1.25434 2.69115 4.30063 -5.47517e-06 6.80933Z"/>
<path id="path25_fill" d="M 1.07646 -5.46854e-06C 0.538225 0.537574 0.538228 0.985567 -2.73758e-06 1.52315L 1.61469 -5.46854e-06L 1.07646 -5.46854e-06Z"/>
<path id="path26_fill" d="M 4.21614 1.09371e-05C 2.60145 1.07517 1.07646 2.15033 2.73758e-06 3.13589C 0.538234 2.59831 1.61469 2.50872 2.60145 2.41913L 4.21614 1.09371e-05Z"/>
<path id="path27_fill" d="M 5.47517e-06 1.70235C 1.07647 1.61275 2.15293 1.52314 3.13969 1.43354L 3.13969 -1.09371e-05L 5.47517e-06 1.70235Z"/>
<path id="path28_fill" d="M -2.73758e-06 1.07515C 0.538228 1.07515 1.07646 0.537585 1.61469 5.46854e-06C 1.07646 5.46854e-06 0.538228 0.537568 -2.73758e-06 1.07515Z"/>
<path id="path29_fill" d="M -5.47517e-06 1.52315C 0.538225 1.52315 1.07646 1.43355 1.61469 1.43355L 1.61469 0.447983L 1.61469 0L -5.47517e-06 1.52315Z"/>
<path id="path30_fill" d="M 0 2.68787L 4.21614 -2.18742e-05C 2.60145 0.537557 1.61469 1.61272 0 2.68787Z"/>
<path id="path31_fill" d="M 5.83083 2.18742e-05C 4.21614 1.07518 2.69115 1.70233 1.07646 2.77749L 0 4.30064C 0.538231 3.76307 1.07646 3.31507 1.6147 2.77749L 5.83083 2.18742e-05Z"/>
<path id="path32_fill" d="M 0 1.25436C 2.96027 1.07517 6.45877 0.806363 9.41904 0.537574L 9.41904 -1.09371e-05C 6.45877 0.179182 2.96027 0.447988 0 0.716778L 0 1.25436Z"/>
<path id="path33_fill" d="M -1.09503e-05 0.537568L 0.627936 0.537568L 1.79409 0.447994L 1.16617 1.09371e-05C 0.538236 1.09371e-05 -1.09503e-05 0.537568 -1.09503e-05 0.537568Z"/>
<path id="path34_fill" d="M 1.07646 1.09371e-05C 1.07646 0.447994 0.538231 0.985584 0 1.52316C 0.538231 0.985584 1.07646 0.53759 1.6147 1.09371e-05L 1.07646 1.09371e-05Z"/>
<path id="path35_fill" d="M 2.73758e-06 1.52316L 1.07646 1.09371e-05C 0.538231 0.53759 2.73758e-06 1.07518 2.73758e-06 1.52316Z"/>
<path id="path36_fill" d="M 6.36907 2.18742e-05C 5.83084 0.537601 5.2926 0.98554 4.75437 1.07514L -2.73758e-06 4.30064C 1.61469 3.22549 3.13968 2.1503 4.75437 1.52312L 6.36907 2.18742e-05Z"/>
<path id="path37_fill" d="M 1.61469 0L -1.36879e-06 1.07517C 1.16617 0.985573 1.16617 0.537579 1.61469 0Z"/>
</defs>
</svg>
